<svg width="41" height="41" viewBox="0 0 41 41" fill="none" xmlns="http://www.w3.org/2000/svg">
<path d="M31.5747 0C27.2485 0 23.6118 2.96974 22.5038 7.01268L16.023 9.59064L22.5038 12.1686C22.9454 13.7794 23.7805 15.2227 24.9101 16.3722L12.7241 28.7719L0 41H9.42529L17.4368 33.5672H22.1494L26.8621 38.3626H31.5747L26.8621 33.5672V33.5658C26.8809 33.5658 26.8993 33.5672 26.9177 33.5672C28.3296 33.5672 29.6915 33.3534 30.9776 32.9597L36.2874 38.3626H41L34.2374 31.4813C38.2926 28.9661 41 24.424 41 19.2379V9.59064C41 4.29373 36.7803 0 31.5747 0ZM22.1494 28.7719H17.4368L26.8621 19.1813H31.5747C31.5747 24.4782 27.355 28.7719 22.1494 28.7719ZM29.2184 7.01268C27.9172 7.01268 26.8621 8.51697 26.8621 7.19298C26.8621 5.86899 27.9172 4.79532 29.2184 4.79532C30.5196 4.79532 31.5747 5.86899 31.5747 7.19298C31.5747 8.51697 30.5196 7.01268 29.2184 7.01268Z" fill="white"/>
</svg>
