<svg width="46" height="46" viewBox="0 0 46 46" fill="none" xmlns="http://www.w3.org/2000/svg">
<g clip-path="url(#clip0_901_1539)">
<path d="M45 23C45 35.1503 35.1503 45 23 45C10.8497 45 1 35.1503 1 23C1 10.8497 10.8497 1 23 1C35.1503 1 45 10.8497 45 23Z" stroke="white" stroke-width="2"/>
<path d="M16.2932 29.1088C14.9224 29.1088 13.8 28.7868 12.926 28.1428C12.0612 27.4896 11.6288 26.5512 11.6288 25.346C11.6288 25.0884 11.6564 24.7848 11.7116 24.4168C11.8588 23.5888 12.0704 22.5952 12.3464 21.4268C13.1284 18.262 15.1524 16.6796 18.4092 16.6796C19.2924 16.6796 20.0928 16.8268 20.792 17.1304C21.4912 17.4156 22.0432 17.8572 22.448 18.446C22.8528 19.0256 23.0552 19.7156 23.0552 20.516C23.0552 20.7552 23.0276 21.0588 22.9724 21.4268C22.7976 22.448 22.5952 23.4508 22.3468 24.4168C21.942 25.99 21.252 27.1768 20.2584 27.9588C19.274 28.7316 17.9492 29.1088 16.2932 29.1088ZM16.5416 26.6248C17.1856 26.6248 17.7284 26.4316 18.1792 26.0544C18.6392 25.6772 18.9704 25.0976 19.1636 24.3064C19.4304 23.2208 19.6328 22.2824 19.7708 21.4728C19.8168 21.2336 19.8444 20.9852 19.8444 20.7276C19.8444 19.6788 19.3016 19.1544 18.2068 19.1544C17.5628 19.1544 17.0108 19.3476 16.5508 19.7248C16.1 20.102 15.778 20.6816 15.5848 21.4728C15.3732 22.2456 15.1708 23.184 14.9592 24.3064C14.9132 24.5364 14.8856 24.7756 14.8856 25.0332C14.8764 26.1004 15.4376 26.6248 16.5416 26.6248Z" fill="white"/>
<path d="M23.8556 28.9432C23.7268 28.9432 23.6348 28.9064 23.5612 28.8236C23.506 28.7316 23.4876 28.6304 23.506 28.5108L25.8888 17.2868C25.9072 17.158 25.9716 17.0568 26.082 16.974C26.1832 16.8912 26.2936 16.8544 26.4132 16.8544H31.004C32.2828 16.8544 33.304 17.1212 34.0768 17.6456C34.8588 18.1792 35.2544 18.9428 35.2544 19.9456C35.2544 20.2308 35.2176 20.5344 35.1532 20.8472C34.868 22.172 34.2884 23.1472 33.4052 23.782C32.5404 24.4168 31.3536 24.7296 29.8448 24.7296H27.5172L26.726 28.5108C26.6984 28.6396 26.6432 28.7408 26.5328 28.8236C26.4316 28.9064 26.3212 28.9432 26.2016 28.9432H23.8556ZM29.9644 22.3468C30.452 22.3468 30.866 22.218 31.2248 21.9512C31.5928 21.6844 31.832 21.3072 31.9516 20.8104C31.9884 20.6172 32.0068 20.4424 32.0068 20.2952C32.0068 19.964 31.9056 19.7064 31.7124 19.5316C31.5192 19.3476 31.1788 19.2556 30.7096 19.2556H28.6396L27.9864 22.3468H29.9644Z" fill="white"/>
</g>
<defs>
<clipPath id="clip0_901_1539">
<rect width="46" height="46" fill="white"/>
</clipPath>
</defs>
</svg>
