<svg width="51" height="58" viewBox="0 0 51 58" fill="none" xmlns="http://www.w3.org/2000/svg">
<path d="M42.4099 18.3135C42.6738 19.4467 43.5907 19.7355 44.2882 20.255C44.5624 20.4599 44.848 20.6669 45.0664 20.9245C45.3448 21.2547 45.4555 21.6252 45.0022 21.9418C44.9308 21.9915 44.8625 22.1033 44.8605 22.1871C44.847 22.9239 44.7891 23.6659 44.8584 24.3955C44.994 25.833 44.5955 27.0562 43.5451 28.0414C43.2833 28.2877 43.2885 28.4357 43.5306 28.6644C44.1785 29.2729 44.6783 29.9673 44.996 30.8211C45.1678 31.2837 45.6242 31.6324 45.8581 32.0805C46.3973 33.1113 46.2751 33.6867 45.4452 34.5239C45.2392 34.7319 45.0395 34.9451 44.8408 35.1603C44.4631 35.5701 44.2013 35.9541 44.6162 36.546C44.9391 37.0066 44.758 37.5437 44.4858 38.0114C44.4175 38.1294 44.3203 38.2308 44.2354 38.3405C43.7956 38.9097 43.3454 39.3826 43.5803 40.283C43.8359 41.2599 43.1798 42.0806 42.5537 42.8215C41.9959 43.4818 42.086 43.8399 42.859 44.2931C43.63 44.7454 44.4351 45.1593 45.1378 45.7026C45.797 46.2118 46.3548 46.8576 46.9333 47.4661C47.2997 47.8521 47.6577 48.2557 47.9579 48.6934C49.0279 50.2561 49.9841 51.8871 50.6413 53.6712C50.93 54.4536 50.7313 54.9814 50.0318 55.4502C48.0458 56.7779 45.8612 57.4558 43.4644 57.3719C41.9866 57.3202 40.5078 57.2498 39.0341 57.1329C37.9878 57.0501 37.0378 56.6558 36.1727 56.0463C35.4969 55.5712 34.7673 55.1697 34.1133 54.6688C33.6589 54.3201 33.2926 53.8564 32.8362 53.3939C32.7938 53.4456 32.6851 53.606 32.5475 53.7364C32.2277 54.0386 31.939 54.4298 31.5561 54.5995C30.3132 55.1511 29.0372 55.5536 27.6287 55.5216C25.8228 55.4802 24.0139 55.5454 22.208 55.6147C20.457 55.682 18.706 55.9262 16.9612 55.8838C15.1139 55.8382 13.2594 55.6292 11.4339 55.3332C10.0875 55.1149 8.73493 54.7609 7.47134 54.2518C5.98939 53.6557 4.47744 53.041 3.29147 51.8891C1.87989 50.5179 1.29311 48.7597 0.895721 46.8959C0.585258 45.4408 0.925735 44.0292 1.07269 42.6011C1.17618 41.5942 1.19894 40.5769 1.33762 39.5751C1.61703 37.5685 1.85402 35.5474 2.29488 33.5739C2.62087 32.1157 3.21902 30.7166 3.73957 29.306C4.04175 28.4874 4.3874 27.6782 4.7879 26.903C6.04217 24.4711 7.27885 22.0288 8.6273 19.6485C9.37759 18.3239 10.2014 17.0262 11.3387 15.9571C11.8561 15.4707 12.2359 14.8353 12.7078 14.2289C12.5071 14.0881 12.3208 13.9412 12.119 13.8201C11.5043 13.4506 11.1979 12.9146 11.3687 12.2119C11.7164 10.7755 11.9203 9.26353 12.5298 7.94199C13.336 6.19305 14.6058 4.74732 16.5876 4.14502C16.8225 4.07361 17.0057 3.80662 17.1951 3.61309C17.4765 3.3254 17.6918 2.94146 18.0219 2.73966C19.2586 1.98212 20.5822 1.44502 22.0756 1.60336C22.416 1.63958 22.8051 1.75238 23.0566 1.96557C23.3412 2.20669 23.5678 2.19634 23.8887 2.13839C26.4458 1.6789 28.9937 1.12007 31.5716 0.8272C33.9591 0.555027 36.3724 0.687492 38.6046 1.76377C39.9148 2.39504 40.9155 3.3937 41.7641 4.58484C42.503 5.62179 42.5527 6.80466 42.6872 7.972C42.9201 10.0055 43.0856 12.0463 43.3113 14.0809C43.333 14.2765 43.5503 14.5569 43.7335 14.6128C45.8022 15.2524 47.5791 16.4311 49.3984 17.5508C50.1891 18.0372 50.6941 18.5919 50.7603 19.5181C50.8276 20.4599 50.0866 20.7196 49.3311 20.434C47.6288 19.7903 45.944 19.0959 44.2261 18.4998C43.6807 18.3115 43.0494 18.3715 42.4099 18.3125V18.3135ZM42.4937 28.8072C42.1325 28.7979 41.7672 28.8176 41.4112 28.7669C41.1991 28.7368 41.0035 28.5951 40.8006 28.503C41.0045 28.4305 41.2053 28.3508 41.4123 28.2908C41.4919 28.268 41.584 28.2887 41.6699 28.2898C42.9791 28.3074 44.2375 27.17 44.3617 25.8557C44.3699 25.7698 44.3523 25.6819 44.343 25.5277C44.1847 25.7067 44.0812 25.8195 43.9829 25.9365C43.3609 26.6723 42.6158 27.2218 41.6234 27.2663C40.3039 27.3253 38.9813 27.3729 37.6619 27.3356C36.8091 27.3108 35.9553 27.1576 35.1129 27.0003C34.4072 26.8679 34.2085 26.4849 34.4061 25.7864C34.4661 25.5753 34.5531 25.3549 34.6866 25.1841C35.3448 24.3458 35.9533 23.4527 36.7149 22.719C37.2831 22.1705 38.0075 21.6396 38.7516 21.4492C40.0679 21.1129 41.4557 21.1232 42.7773 21.5703C43.0939 21.6779 43.3796 21.9491 43.6165 22.2037C43.8773 22.4841 44.0657 22.8329 44.2861 23.1526C44.3803 22.8173 44.3813 22.5141 44.3803 22.2109C44.3803 21.7214 44.2251 21.3137 43.7086 21.1812C43.1157 21.028 42.5154 20.8459 41.91 20.8066C40.8462 20.7372 39.7658 20.6679 38.7123 20.7817C37.5873 20.9028 36.6694 21.5465 35.8943 22.3785C35.7939 22.4862 35.5817 22.4882 35.4203 22.539C35.4379 22.4013 35.4048 22.2192 35.4803 22.1333C36.4065 21.0725 37.5315 20.3264 38.9699 20.2488C40.5916 20.1608 42.2184 20.1618 43.8318 20.5872C43.809 20.5075 43.808 20.4702 43.7894 20.4464C43.7573 20.4071 43.7149 20.3761 43.6755 20.3429C43.0267 19.8027 42.2578 19.7117 41.4464 19.6796C40.0814 19.6268 38.733 19.6082 37.4528 20.196C37.341 20.2467 37.1796 20.1877 37.0409 20.1805C37.1009 20.0418 37.1268 19.8193 37.2272 19.7789C37.6836 19.5916 38.1534 19.3577 38.6336 19.3184C39.7596 19.2273 40.8927 19.2377 42.0239 19.2046C42.1015 19.2025 42.1791 19.1777 42.2557 19.1642L42.3592 19.0214C41.819 18.4646 41.2777 17.9099 40.7385 17.3521C40.1807 16.7757 39.5019 16.6288 38.7164 16.6774C36.9654 16.785 35.2092 16.8254 33.4571 16.9268C32.8238 16.963 32.1967 17.0965 31.5012 17.1948C31.6471 17.4639 31.7299 17.6129 31.8086 17.7651C32.2494 18.6178 32.9997 19.3639 32.7286 20.4661C32.71 20.5416 32.8507 20.6586 32.92 20.7538C33.3278 21.3157 33.9725 21.7276 34.0263 22.511C34.0574 22.957 34.1195 23.4041 34.0988 23.847C34.0884 24.0695 33.9249 24.2848 33.7811 24.616C33.809 24.7898 33.8866 25.1096 33.9021 25.4325C33.9083 25.5711 33.7873 25.716 33.7252 25.8578C33.6393 25.7347 33.4975 25.6198 33.4747 25.4863C33.3371 24.6522 32.9501 23.9764 32.3146 23.4155C31.6316 22.8122 30.9558 22.1964 30.3194 21.5434C28.9461 20.1329 27.2375 19.4974 25.324 19.4229C23.9673 19.3702 22.6023 19.4302 21.2445 19.4995C20.131 19.5564 19.0609 19.7903 18.2558 20.6793C17.8512 21.1253 17.3803 21.5144 17.0077 21.9843C16.8101 22.2337 16.7604 22.601 16.6259 22.9622C17.2168 23.0264 17.4496 22.7439 17.6411 22.4365C18.2103 21.5258 19.0434 20.9794 20.0462 20.6762C21.6388 20.1939 23.2739 20.0035 24.937 20.019C25.8953 20.0283 26.7542 20.3285 27.5739 20.8066C28.4494 21.3168 29.3394 21.8032 30.2376 22.2709C31.0231 22.6797 31.6989 23.1899 32.0652 24.0209C32.3291 24.6191 32.5454 25.239 32.8186 25.834C32.9231 26.0606 33.0918 26.2852 33.2885 26.4373C33.749 26.7964 33.8483 27.3667 33.4375 27.7723C33.1705 28.0362 32.8786 28.3146 32.5433 28.4616C31.6978 28.831 31.2125 29.5741 30.5791 30.1701C29.9975 30.7176 29.3632 31.2568 28.6563 31.6097C27.6773 32.0992 26.6125 32.42 25.5765 32.7905C25.322 32.8815 25.0363 32.9178 24.7652 32.9136C24.641 32.9115 24.5199 32.7511 24.3978 32.6621C24.5106 32.5876 24.6131 32.4821 24.7362 32.4427C25.1616 32.3103 25.5993 32.2202 26.0215 32.0785C26.6083 31.8818 27.1754 31.619 27.7684 31.4462C29.1086 31.055 30.0317 30.1494 30.8948 29.0483C30.4653 29.0018 30.0959 28.9521 29.7254 28.9221C27.9102 28.7741 26.094 28.6406 24.2798 28.4843C23.3081 28.4005 22.3653 28.1677 21.584 27.5581C20.8937 27.02 20.2531 26.4156 19.6012 25.8288C19.5318 25.7667 19.477 25.5877 19.5153 25.5308C19.5649 25.4583 19.7233 25.4118 19.8205 25.4304C19.9478 25.4552 20.0772 25.5349 20.1786 25.6239C20.605 25.9996 20.9982 26.4166 21.4474 26.7602C21.8779 27.0893 22.3312 27.4898 22.8331 27.6078C24.0304 27.8882 25.2578 28.0652 26.4821 28.1987C27.6939 28.3301 28.9316 28.267 30.131 28.4564C31.2166 28.6271 32.0538 28.2473 32.8569 27.6502C33.305 27.318 33.2802 27.1317 32.8797 26.8378C32.4274 26.9558 31.9886 27.0013 31.613 27.1793C30.2469 27.8272 28.8281 27.7889 27.4145 27.4981C26.1716 27.2435 24.9484 26.8803 23.7272 26.5305C22.7731 26.2573 21.9255 25.7874 21.2114 25.0744C20.9775 24.8405 20.6443 24.6874 20.3328 24.5528C19.6394 24.2527 18.9357 23.9733 18.2248 23.7156C17.8884 23.5935 17.5179 23.4465 17.1785 23.4797C16.5803 23.5386 16.1519 23.2727 16.2295 22.6725C16.2771 22.3051 16.4531 21.9222 16.6704 21.6169C16.957 21.2133 17.3524 20.8894 17.6804 20.5137C18.5094 19.5647 19.5991 19.0752 20.8068 19.0111C22.8828 18.9024 24.966 18.9231 27.0471 18.8951C27.6815 18.8869 28.3169 18.9252 28.9492 18.8941C30.1579 18.8351 31.2911 18.9634 32.1439 19.959C32.1542 19.9714 32.2029 19.9507 32.3167 19.9321C32.1977 19.6216 32.1097 19.3112 31.9648 19.0307C31.7279 18.5723 31.4433 18.1397 31.198 17.6854C31.0386 17.3904 30.8317 17.2797 30.4881 17.318C28.9699 17.4867 27.4414 17.5829 25.9305 17.8023C24.2498 18.0455 22.5775 18.2028 20.9072 17.824C19.4066 17.4836 17.9692 16.9579 16.689 16.0803C16.2947 15.8102 15.9936 15.3797 15.5744 15.1758C14.9763 14.885 14.3036 14.7525 13.6765 14.5166C13.3319 14.3872 13.0949 14.4483 12.8631 14.7256C12.2018 15.5152 11.4453 16.2365 10.8751 17.0851C9.81224 18.6654 8.80323 20.286 7.8677 21.9449C6.93217 23.6038 6.14256 25.3455 5.23704 27.0231C4.16904 29.0038 3.37115 31.086 2.81749 33.2572C2.56809 34.2341 2.46253 35.2504 2.31661 36.2521C2.10446 37.7123 1.90576 39.1736 1.72052 40.6379C1.63359 41.3199 1.60772 42.0081 1.52389 42.6901C1.33658 44.2041 1.02612 45.7109 1.41213 47.2425C1.83332 48.9128 2.38595 50.5024 3.72094 51.707C4.79308 52.6736 6.10427 53.2221 7.39787 53.7519C8.58177 54.2373 9.85156 54.5239 11.0986 54.8406C13.01 55.326 14.9794 55.3974 16.9322 55.415C18.7308 55.4305 20.5315 55.2039 22.3322 55.1325C24.0346 55.0652 25.7432 54.9834 27.4435 55.0497C28.9658 55.1097 30.3691 54.7589 31.6554 54.0469C32.1501 53.7737 32.5485 53.1382 32.7503 52.5804C32.9325 52.0785 32.8 51.4566 32.7772 50.8884C32.77 50.7083 32.7151 50.5014 32.6096 50.3596C32.1087 49.6869 31.5799 49.0349 31.0686 48.3695C30.8813 48.1263 30.6837 47.8831 30.5409 47.613C30.129 46.8286 30.2645 46.2532 30.9569 45.7089C31.6585 45.1573 32.5496 45.1169 33.1467 45.6105C33.2481 45.6944 33.3464 45.7813 33.5099 45.921C34.5469 45.0465 35.5383 44.1451 36.6011 43.339C37.2934 42.8143 38.0644 42.3724 38.8499 41.9978C39.6085 41.6356 40.3857 41.6532 41.0407 42.3196C41.2777 42.5607 41.5613 42.7563 41.8159 42.9675C42.9356 42.033 43.4924 40.6669 43.0391 39.9011C42.0063 40.8553 40.7499 41.0115 39.4222 40.9039C39.0113 40.8708 38.5974 40.819 38.1876 40.8315C36.5535 40.8832 34.9205 40.9826 33.2864 41.0146C32.4109 41.0322 31.5312 40.9722 30.6568 40.9039C29.9965 40.8522 29.3414 40.7321 28.6843 40.6421C28.3438 40.5955 28.0013 40.5634 27.6639 40.4993C26.6207 40.2995 25.5134 40.2478 24.553 39.8463C22.7451 39.0918 21.0231 38.1325 19.2648 37.2591C18.0333 36.6474 16.7666 36.0845 15.7462 35.1324C15.4813 34.8851 15.234 34.5508 15.1284 34.2103C14.7993 33.1547 15.5672 32.2937 16.6497 32.4603C17.0057 32.5152 17.3606 32.5959 17.7073 32.6963C18.9306 33.0502 20.1393 33.4528 21.3718 33.7674C22.386 34.0261 23.4219 34.2051 24.4537 34.3862C26.3651 34.7215 28.2765 35.0682 30.1973 35.3394C31.2839 35.4936 32.3943 35.4718 33.4872 35.5929C35.8198 35.8537 38.1555 35.9655 40.4933 35.7378C41.405 35.6488 42.3385 35.4491 42.9501 34.6884C43.4417 34.0778 43.8794 33.4031 44.224 32.6984C44.9412 31.2309 44.5107 29.8597 43.1126 28.9283C43.0712 28.9749 43.0205 29.0183 42.9842 29.0721C42.4554 29.8638 41.6617 29.9984 40.8006 29.9321C40.6785 29.9228 40.5647 29.7883 40.4477 29.7117C40.5668 29.6206 40.6744 29.4923 40.8089 29.4478C40.9497 29.4012 41.1173 29.4488 41.2705 29.4333C41.7558 29.3826 42.2402 29.3226 42.5009 28.8186C42.5134 28.801 42.5268 28.7844 42.5392 28.7669C42.5237 28.7813 42.5082 28.7958 42.4927 28.8103L42.4937 28.8072ZM40.8834 16.784C41.1701 17.1162 41.464 17.4246 41.7155 17.763C41.8821 17.9865 42.0425 18.0114 42.3188 18.001C43.0194 17.9772 43.7707 17.8965 44.4165 18.1045C46.0516 18.6302 47.635 19.3132 49.2504 19.9031C49.5423 20.0097 49.8879 19.9725 50.2087 20.0014C50.218 19.6537 50.2905 19.2915 50.216 18.9634C50.1611 18.7182 49.9531 18.4698 49.7482 18.3042C49.3487 17.9803 48.9068 17.7081 48.4774 17.4235C47.6019 16.8451 46.5991 16.7064 45.5901 16.5439C43.7738 16.25 41.9814 15.7543 40.1569 15.5866C36.6332 15.2617 33.1074 15.3859 29.6084 16.0078C28.6801 16.1724 27.7291 16.2045 26.7956 16.3493C25.0084 16.6277 23.2222 16.9123 21.4081 16.6846C20.1134 16.5222 18.8829 16.1465 17.7756 15.4345C17.5893 15.3145 17.459 15.1096 17.3027 14.944C17.3389 14.8943 17.3751 14.8446 17.4103 14.795C17.5873 14.827 17.7715 14.8384 17.9402 14.8953C18.8964 15.2151 19.8816 15.2431 20.8523 15.0723C23.1725 14.6625 25.4751 14.1502 27.7984 13.7663C29.4242 13.4983 31.0697 13.3285 32.7141 13.1992C33.7924 13.1143 34.8822 13.1547 35.9657 13.1837C37.131 13.2157 38.3035 13.2281 39.4553 13.3823C40.5864 13.5334 41.6948 13.8501 42.8093 14.0943C42.8321 14.0457 42.8621 14.0147 42.859 13.9857C42.6707 12.0494 42.4916 10.1121 42.2847 8.17794C42.1967 7.35728 42.205 6.47764 41.8935 5.7408C41.227 4.15847 40.0504 2.96319 38.4929 2.20359C36.243 1.10662 33.8193 0.979327 31.4112 1.25667C28.9896 1.53506 26.5866 2.01628 24.1981 2.51612C22.4315 2.88557 20.7033 3.43716 18.9544 3.89148C17.5718 4.24954 16.2119 4.60244 15.0156 5.47691C14.0604 6.17545 13.336 7.06752 12.9252 8.09412C12.3922 9.42601 12.1324 10.8697 11.8044 12.2761C11.7433 12.5368 11.8178 12.9643 11.9989 13.1205C12.416 13.4827 12.9065 13.8004 13.4198 14.0043C14.5147 14.439 15.7835 14.4917 16.5897 15.5297C16.6507 15.6084 16.7459 15.6663 16.8339 15.7191C18.7867 16.8854 20.8751 17.7495 23.1694 17.6285C25.828 17.4887 28.4918 17.2238 31.1225 16.8161C33.6186 16.429 36.1261 16.249 38.6295 16.2521C40.5937 16.2541 42.5672 16.5956 44.5179 16.903C45.8591 17.1141 47.1579 17.5539 48.3035 18.3363C48.4329 18.4253 48.5415 18.5454 48.6595 18.6509L48.5643 18.831C46.1603 17.4743 43.5803 16.8337 40.8845 16.7861L40.8834 16.784ZM43.512 54.675C42.9521 54.675 42.4213 54.7019 41.8935 54.6678C41.2436 54.6264 40.6806 54.4329 40.4571 53.7054C40.4198 53.5843 40.1569 53.4601 39.9986 53.4611C39.3032 53.4642 38.7257 53.2024 38.2114 52.7657C37.8057 52.4221 37.4228 52.0495 37.0047 51.7225C36.1209 51.0302 35.3862 50.2685 35.4482 49.0277C35.4576 48.8466 35.3986 48.6396 35.3065 48.4834C35.2268 48.3488 35.0643 48.1977 34.9205 48.1781C33.8576 48.0311 33.4913 47.7051 33.2657 46.6754C33.1601 46.1921 32.8435 45.8941 32.3622 45.7896C31.7837 45.6643 31.3553 45.9562 30.9972 46.3505C30.6754 46.7065 30.8068 47.1049 31.0262 47.4516C31.2177 47.7538 31.4536 48.0322 31.6989 48.294C32.6955 49.3599 33.5606 50.4745 33.2916 52.0723C33.275 52.1727 33.2905 52.2793 33.2978 52.3817C33.365 53.3224 33.63 54.1369 34.6079 54.5281C34.8118 54.6098 34.9939 54.7527 35.1761 54.881C36.4283 55.7627 37.6401 56.6444 39.298 56.7096C41.8479 56.811 44.3844 57.2674 46.924 56.5078C48.0344 56.1756 49.0434 55.7027 49.951 55.0165C50.1642 54.8551 50.3288 54.4587 50.3029 54.1897C50.2625 53.7571 50.0825 53.3245 49.8962 52.9209C49.1055 51.2051 48.169 49.5896 46.9747 48.1005C45.9378 46.8079 44.7673 45.7461 43.3061 44.9948C42.6562 44.6605 42.118 44.2559 41.6906 43.6174C41.3522 43.1113 40.7592 42.7667 40.2532 42.3848C40.1249 42.2886 39.8672 42.2555 39.7171 42.3144C38.9761 42.6084 38.1927 42.8547 37.5356 43.2862C36.7211 43.8212 36.0154 44.5229 35.2496 45.1624C35.5062 45.3549 35.6832 45.4636 35.8322 45.6023C36.4945 46.219 36.4417 46.8534 35.6728 47.3357C35.5579 47.4071 35.3675 47.3574 35.2123 47.3636C35.263 47.2322 35.2806 47.0687 35.3696 46.9735C35.9274 46.3763 35.8995 46.1694 35.1771 45.7461C34.7818 45.5143 34.166 45.7202 33.9125 46.1683C33.6372 46.6558 33.7645 47.2591 34.2405 47.4537C34.9836 47.7579 35.7629 47.8314 36.4769 47.3936C37.0471 47.0438 37.5884 46.6371 38.0996 46.2066C39.032 45.4222 40.3608 45.3673 41.3295 46.1031C41.554 46.2739 41.6203 46.396 41.3967 46.634C41.2684 46.7717 41.2353 46.9993 41.1597 47.1856C41.7113 46.9062 42.1553 46.5595 42.621 46.2449C42.7338 46.1683 42.917 46.1973 43.0691 46.1776C43.0184 46.3205 43.0111 46.5181 42.9097 46.5988C41.8272 47.4733 40.7779 48.4109 39.4688 48.9408C38.5943 49.2947 38.1679 50.0295 37.7312 50.7704C37.6639 50.8853 37.6629 51.0726 37.6991 51.2092C37.9361 52.1075 39.0558 52.9416 39.981 52.9509C40.3163 52.954 40.4974 52.8288 40.6599 52.5266C40.9942 51.9088 41.3398 51.2837 41.7796 50.7415C42.1191 50.3234 42.6034 50.0222 43.038 49.6869C43.1074 49.6331 43.2543 49.6786 43.3651 49.6786C43.3526 49.8028 43.3682 49.9394 43.3195 50.0471C43.2823 50.1298 43.1695 50.1837 43.0836 50.2395C42.0249 50.9298 41.434 51.9719 40.9724 53.0958C40.7841 53.5563 41.077 53.9931 41.5716 54.0665C41.9783 54.1266 42.3912 54.1752 42.8011 54.1669C43.0029 54.1628 43.2564 54.0717 43.393 53.9299C44.1785 53.1124 44.9288 52.2627 45.7091 51.44C45.8084 51.3355 46.0113 51.3282 46.1665 51.2765C46.1303 51.4421 46.1468 51.6573 46.0475 51.766C45.4421 52.4231 44.7901 53.0379 44.2002 53.7074C44.0533 53.874 43.9974 54.2062 44.0419 54.4339C44.0833 54.6399 44.2913 54.9234 44.4745 54.9679C44.9867 55.0921 45.5042 55.0579 45.8829 54.5809C46.1706 54.2176 46.4769 53.8699 46.7781 53.517C47.0565 53.19 47.3204 52.8464 47.6308 52.5515C47.7312 52.4563 47.9589 52.4956 48.1286 52.4728C48.0841 52.6042 48.0717 52.7626 47.9879 52.8619C47.4166 53.5481 46.8474 54.2373 46.2441 54.8944C45.3593 55.8579 44.1526 55.7285 43.5151 54.673L43.512 54.675ZM45.1389 31.6728C44.8729 32.3217 44.669 32.9819 44.3441 33.5749C43.6341 34.8685 42.7079 35.9365 41.1111 36.1145C40.2232 36.2128 39.328 36.3805 38.4432 36.3432C35.7629 36.2294 33.0856 36.04 30.4084 35.862C27.2862 35.655 24.2736 34.8074 21.2166 34.2258C19.6684 33.9309 18.171 33.371 16.6445 32.9571C15.9429 32.7667 15.5548 33.0595 15.6148 33.7912C15.6438 34.142 15.8425 34.5984 16.1167 34.7867C17.0326 35.4159 18.0064 35.9655 18.9792 36.5088C20.0151 37.0873 21.0634 37.6471 22.1273 38.1698C23.1767 38.6851 24.2157 39.2802 25.3282 39.5927C26.7594 39.9943 28.2517 40.2954 29.7326 40.3772C32.1025 40.5075 34.4848 40.4248 36.8619 40.4268C37.875 40.4268 38.8923 40.3596 39.9013 40.4217C40.9983 40.4889 41.9845 40.2488 42.7586 39.4903C43.3278 38.9325 43.807 38.2681 44.2437 37.5964C44.5003 37.2021 44.4093 36.7396 44.0098 36.3598C43.6093 36.6837 43.2016 36.9724 42.8435 37.3129C42.355 37.7775 41.7952 38.0176 41.1256 38.03C39.4936 38.0601 37.8616 38.0994 36.2296 38.1253C33.7769 38.1636 31.3501 37.9959 28.9606 37.3615C28.1906 37.1566 27.3534 37.1028 26.5535 37.1328C25.0767 37.1877 23.6879 36.8555 22.3105 36.4053C21.3615 36.0948 20.4332 35.713 19.4687 35.4677C18.7194 35.2773 18.1047 34.9099 17.5366 34.4297C17.4248 34.3345 17.3855 34.1534 17.313 34.0116C17.4776 34.0354 17.6856 34.0023 17.8005 34.0913C18.4235 34.5725 19.092 34.9368 19.8733 35.0889C20.1921 35.151 20.5015 35.2617 20.8109 35.3642C21.8065 35.6933 22.7896 36.0679 23.7976 36.3504C24.9825 36.6826 26.2099 36.7044 27.4362 36.692C27.8284 36.6878 28.23 36.7385 28.6129 36.8265C30.8492 37.3377 33.0949 37.7072 35.4058 37.6316C37.1941 37.5737 38.9844 37.6089 40.7748 37.5964C41.5075 37.5913 42.1439 37.3853 42.6686 36.8172C43.4479 35.9748 44.282 35.1841 45.084 34.3614C45.9874 33.4342 45.9926 32.6859 45.1389 31.6749V31.6728ZM46.4376 16.338C46.4531 16.2914 46.4687 16.2438 46.4842 16.1972C46.2472 16.0792 46.0175 15.9416 45.7722 15.8474C44.9691 15.538 44.1174 15.3248 43.363 14.9264C42.2588 14.3427 41.0583 14.143 39.8817 13.8315C38.8044 13.5459 37.7126 13.4558 36.6042 13.5179C36.1571 13.5428 35.708 13.6007 35.263 13.5738C33.5544 13.4703 31.8655 13.5904 30.1621 13.7715C27.6691 14.0364 25.2537 14.6511 22.8082 15.1344C22.1345 15.2679 21.4588 15.4169 20.7768 15.479C20.13 15.538 19.4728 15.4914 18.8209 15.4914C19.0402 15.6839 19.2669 15.8071 19.508 15.8836C21.2466 16.4342 23.0245 16.5346 24.8221 16.2862C26.9177 15.9965 29.0051 15.6239 31.1069 15.3962C33.7086 15.1147 36.3227 14.9699 38.9441 15.1106C41.0666 15.2244 43.1498 15.568 45.2051 16.102C45.6087 16.2065 46.0257 16.2614 46.4366 16.34L46.4376 16.338ZM29.1003 22.5803C29.1065 22.5152 29.1127 22.45 29.1179 22.3848C28.5684 22.037 28.0137 21.6966 27.4714 21.3385C26.6756 20.8138 25.8249 20.4785 24.8552 20.5271C24.0832 20.5654 23.3008 20.5468 22.5412 20.6669C21.613 20.8138 20.6898 21.0363 19.7885 21.3054C18.9295 21.5631 18.3324 22.1778 17.8605 23.0564C18.1492 23.1195 18.3986 23.2458 18.6222 23.2096C19.3807 23.0874 20.1238 22.8308 20.8844 22.7687C22.3022 22.6528 23.7272 22.6166 25.1502 22.5855C26.4655 22.5576 27.7819 22.5793 29.0982 22.5793L29.1003 22.5803ZM27.8636 23.074C28.6253 24.1627 28.5735 25.2628 27.7312 26.9941C29.3538 27.4432 30.871 27.0241 32.3819 26.3411C32.3819 26.3307 32.4067 26.2376 32.3778 26.1652C32.0952 25.4459 31.8572 24.7018 31.5012 24.0209C31.1783 23.4031 30.6857 22.9053 29.8868 22.9457C29.2379 22.9788 28.5891 23.0264 27.8626 23.073L27.8636 23.074ZM33.5968 23.9909C34.1691 21.7762 31.049 18.5878 27.9061 19.4767C28.1213 19.5657 28.2776 19.6113 28.4152 19.691C29.033 20.049 29.6674 20.3833 30.2501 20.7921C30.6247 21.0549 30.9155 21.4347 31.2497 21.7545C32.029 22.5007 32.8124 23.2437 33.5958 23.9909H33.5968ZM44.2768 24.2755C44.3068 24.2393 44.3368 24.203 44.3679 24.1679C44.3337 24.0757 44.3182 23.9712 44.2623 23.8946C43.9094 23.4062 43.572 22.9043 43.1798 22.4489C43.0018 22.2419 42.7328 22.0588 42.4709 21.9884C41.2881 21.6665 40.0783 21.7028 38.8871 21.9149C38.5073 21.9822 38.17 22.2875 37.8129 22.4841C37.9878 22.6435 38.1006 22.6838 38.2155 22.6911C39.0227 22.7366 39.8392 22.718 40.6361 22.8339C41.2332 22.9208 41.8221 23.1381 42.385 23.3669C43.0318 23.6297 43.6466 23.9702 44.2758 24.2775L44.2768 24.2755ZM41.1422 26.9217C41.6865 26.7344 42.2774 26.6247 42.7617 26.337C43.2057 26.0731 43.542 25.6229 43.9156 25.2452C44.2696 24.8881 44.2282 24.7702 43.7676 24.558C43.1602 24.2775 42.5692 23.9619 41.9638 23.6794C41.6534 23.5345 41.3243 23.4289 40.8948 23.2634C41.8283 24.737 41.851 25.418 41.1422 26.9217ZM36.0464 49.9115C37.3824 48.6479 38.7816 47.6161 39.8051 46.1218C39.0403 45.9593 38.6626 46.4446 38.2062 46.7603C37.4373 47.2932 36.6611 47.8159 35.8425 48.3726C35.8912 48.7441 35.9584 49.2492 36.0464 49.9115ZM23.0256 2.41056C22.4212 1.86829 20.7105 1.90347 19.5059 2.37745C18.1823 2.89903 17.697 3.27779 17.6432 3.87181C19.418 3.38956 21.1773 2.91248 23.0256 2.41056ZM37.1227 51.1896C37.1579 51.0654 37.1765 50.9919 37.2003 50.9195C37.5046 49.9777 37.9909 49.1146 38.8996 48.7007C39.7699 48.3043 40.2097 47.5747 40.7044 46.8669C40.7872 46.7479 40.7406 46.4188 40.632 46.3122C40.4022 46.0876 40.2646 46.3256 40.1187 46.5109C39.8123 46.9 39.506 47.2953 39.1541 47.643C38.229 48.5568 37.28 49.4468 36.3289 50.3586C36.5701 50.6111 36.8257 50.8781 37.1227 51.1906V51.1896ZM21.6481 24.6263C21.9224 24.1668 22.2339 23.6473 22.5826 23.0636C21.4432 23.2023 20.337 23.3368 19.2307 23.4714C19.2338 23.5107 19.2369 23.55 19.24 23.5894C20.0534 23.9391 20.8658 24.29 21.6481 24.6263ZM26.2596 25.5577C26.8598 25.566 27.2458 25.2307 27.2468 24.7008C27.2479 24.3427 26.9384 24.0706 26.5276 24.0654C26.036 24.0592 25.5041 24.5021 25.5476 24.9243C25.589 25.3228 25.8042 25.5918 26.2596 25.5567V25.5577ZM35.857 26.6609C35.9667 25.805 36.0733 24.9657 36.1913 24.0488C35.796 24.5601 35.3851 25.0185 35.0591 25.5318C34.6721 26.1403 34.7859 26.3597 35.4772 26.5553C35.6366 26.6009 35.797 26.6443 35.857 26.6609ZM40.6485 25.1168C40.6568 24.6429 40.4612 24.468 39.95 24.4587C39.5205 24.4504 39.4346 24.7619 39.418 25.0672C39.3984 25.4459 39.5557 25.7243 40.011 25.7264C40.4364 25.7285 40.6423 25.5339 40.6485 25.1168ZM24.3274 23.8439C24.0532 23.6556 23.8928 23.4579 23.7531 23.4714C23.6072 23.4859 23.4819 23.7032 23.3474 23.8326C23.4768 23.9588 23.5979 24.173 23.7376 24.1865C23.8824 24.1999 24.046 24.0188 24.3285 23.8439H24.3274ZM24.4765 25.1748C24.2426 24.9926 24.0894 24.8053 24.019 24.8322C23.8545 24.8954 23.7313 25.063 23.5906 25.1882C23.7107 25.3031 23.8276 25.5039 23.9507 25.508C24.0894 25.5132 24.2333 25.3383 24.4765 25.1738V25.1748ZM37.6774 23.7073C37.5128 23.9557 37.341 24.1016 37.3472 24.2413C37.3524 24.3717 37.5439 24.4949 37.6546 24.6222C37.7726 24.4949 37.9682 24.379 37.9878 24.2393C38.0054 24.1109 37.8326 23.9567 37.6784 23.7084L37.6774 23.7073ZM37.7364 25.3135C37.5832 25.5567 37.4414 25.6819 37.4497 25.7968C37.458 25.9023 37.6267 25.9965 37.725 26.0958C37.8316 25.9903 37.9982 25.8971 38.0251 25.774C38.0458 25.6788 37.8906 25.5463 37.7364 25.3135ZM41.1194 47.3822L41.0904 47.3636L41.0873 47.3936L41.1194 47.3822Z" fill="#0A0805"/>
<path d="M42.502 28.8154C42.2412 29.3194 41.7569 29.3794 41.2715 29.4302C41.1184 29.4467 40.9497 29.3981 40.81 29.4446C40.6754 29.4891 40.5678 29.6175 40.4488 29.7085C40.5668 29.7851 40.6796 29.9197 40.8017 29.929C41.6627 29.9952 42.4565 29.8607 42.9853 29.069C43.0215 29.0152 43.0722 28.9707 43.1136 28.9251C44.5117 29.8565 44.9422 31.2277 44.2251 32.6952C43.8804 33.3989 43.4427 34.0737 42.9511 34.6853C42.3395 35.4459 41.4061 35.6456 40.4943 35.7346C38.1565 35.9613 35.8208 35.8495 33.4882 35.5898C32.3954 35.4676 31.2849 35.4894 30.1983 35.3362C28.2776 35.064 26.3662 34.7184 24.4547 34.3831C23.423 34.202 22.3871 34.0229 21.3729 33.7642C20.1403 33.4496 18.9306 33.0471 17.7084 32.6931C17.3617 32.5927 17.0078 32.512 16.6507 32.4572C15.5682 32.2906 14.8004 33.1516 15.1294 34.2072C15.236 34.5476 15.4823 34.8809 15.7473 35.1292C16.7677 36.0813 18.0333 36.6443 19.2659 37.2559C21.0241 38.1293 22.7462 39.0887 24.5541 39.8431C25.5145 40.2446 26.6218 40.2964 27.6649 40.4961C28.0023 40.5603 28.3449 40.5924 28.6853 40.6389C29.3425 40.729 29.9976 40.849 30.6578 40.9007C31.5323 40.969 32.4119 41.0291 33.2874 41.0115C34.9215 40.9794 36.5545 40.8801 38.1886 40.8283C38.5995 40.8149 39.0124 40.8666 39.4232 40.9007C40.751 41.0084 42.0073 40.8511 43.0401 39.8979C43.4934 40.6638 42.9377 42.0298 41.8169 42.9643C41.5613 42.7532 41.2788 42.5576 41.0418 42.3165C40.3867 41.651 39.6095 41.6324 38.8509 41.9946C38.0655 42.3703 37.2945 42.8111 36.6021 43.3358C35.5383 44.142 34.5479 45.0434 33.511 45.9178C33.3475 45.7781 33.2481 45.6912 33.1477 45.6074C32.5506 45.1137 31.6596 45.1541 30.9579 45.7057C30.2666 46.25 30.13 46.8254 30.5419 47.6099C30.6837 47.88 30.8813 48.1232 31.0697 48.3664C31.5819 49.0308 32.1097 49.6827 32.6106 50.3564C32.7162 50.4982 32.771 50.7052 32.7783 50.8853C32.8 51.4534 32.9335 52.0754 32.7514 52.5773C32.5496 53.1351 32.1501 53.7695 31.6565 54.0437C30.3701 54.7557 28.9668 55.1065 27.4445 55.0465C25.7442 54.9803 24.0367 55.062 22.3332 55.1293C20.5315 55.2007 18.7319 55.4273 16.9332 55.4118C14.9804 55.3953 13.0111 55.3228 11.0996 54.8375C9.8526 54.5208 8.58281 54.2341 7.39891 53.7488C6.10531 53.2189 4.79412 52.6715 3.72198 51.7038C2.38699 50.4992 1.83436 48.9107 1.41317 47.2394C1.02716 45.7088 1.33762 44.202 1.52494 42.6869C1.60876 42.005 1.63567 41.3157 1.72156 40.6348C1.90784 39.1715 2.1055 37.7092 2.31765 36.249C2.46357 35.2472 2.56913 34.232 2.81853 33.254C3.37219 31.0829 4.17009 28.9996 5.23808 27.0199C6.14257 25.3424 6.93218 23.6017 7.86874 21.9418C8.80427 20.2829 9.81328 18.6622 10.8761 17.082C11.4463 16.2334 12.2038 15.511 12.8641 14.7225C13.0959 14.4451 13.3329 14.3841 13.6775 14.5134C14.3047 14.7494 14.9784 14.8818 15.5755 15.1726C15.9936 15.3765 16.2958 15.807 16.69 16.0771C17.9702 16.9547 19.4066 17.4804 20.9082 17.8209C22.5795 18.2007 24.2509 18.0434 25.9315 17.7992C27.4424 17.5798 28.971 17.4846 30.4891 17.3148C30.8327 17.2765 31.0397 17.3862 31.199 17.6822C31.4443 18.1365 31.7289 18.5691 31.9659 19.0276C32.1108 19.308 32.1987 19.6185 32.3177 19.9289C32.2039 19.9476 32.1553 19.9683 32.1449 19.9558C31.2922 18.9603 30.159 18.832 28.9503 18.891C28.3179 18.922 27.6825 18.8837 27.0481 18.892C24.968 18.9199 22.8848 18.8992 20.8078 19.0079C19.6001 19.071 18.5114 19.5605 17.6815 20.5105C17.3534 20.8862 16.9581 21.2111 16.6714 21.6137C16.4541 21.919 16.2782 22.3019 16.2306 22.6693C16.1529 23.2695 16.5814 23.5345 17.1795 23.4765C17.5179 23.4434 17.8895 23.5903 18.2258 23.7125C18.9368 23.9701 19.6405 24.2496 20.3339 24.5497C20.6454 24.6842 20.9786 24.8374 21.2125 25.0712C21.9276 25.7853 22.7751 26.2541 23.7283 26.5273C24.9504 26.8771 26.1726 27.2404 27.4155 27.4949C28.8292 27.7847 30.248 27.824 31.614 27.1762C31.9897 26.9982 32.4285 26.9516 32.8807 26.8347C33.2812 27.1276 33.305 27.3138 32.858 27.6471C32.0539 28.2442 31.2177 28.624 30.1321 28.4532C28.9316 28.2649 27.6949 28.328 26.4831 28.1955C25.2588 28.062 24.0315 27.8851 22.8341 27.6046C22.3322 27.4877 21.88 27.0862 21.4484 26.7571C20.9993 26.4135 20.606 25.9964 20.1797 25.6208C20.0793 25.5328 19.9499 25.4521 19.8216 25.4272C19.7243 25.4086 19.566 25.4542 19.5163 25.5276C19.478 25.5845 19.5329 25.7625 19.6022 25.8257C20.2542 26.4124 20.8937 27.0168 21.585 27.555C22.3674 28.1645 23.3091 28.3973 24.2809 28.4812C26.095 28.6374 27.9112 28.772 29.7264 28.9189C30.0969 28.9489 30.4664 28.9986 30.8958 29.0452C30.0338 30.1453 29.1096 31.0518 27.7695 31.443C27.1765 31.6158 26.6094 31.8787 26.0226 32.0753C25.6014 32.216 25.1626 32.3071 24.7373 32.4396C24.6141 32.4779 24.5106 32.5834 24.3989 32.659C24.521 32.748 24.6431 32.9084 24.7662 32.9104C25.0363 32.9146 25.323 32.8784 25.5776 32.7873C26.6135 32.4168 27.6784 32.096 28.6574 31.6065C29.3632 31.2536 29.9986 30.7144 30.5802 30.167C31.2135 29.5709 31.6989 28.8279 32.5444 28.4584C32.8797 28.3115 33.1715 28.0331 33.4385 27.7692C33.8494 27.3635 33.75 26.7933 33.2895 26.4342C33.0939 26.281 32.9242 26.0575 32.8197 25.8308C32.5475 25.2368 32.3312 24.6169 32.0663 24.0177C31.6999 23.1878 31.0242 22.6765 30.2387 22.2678C29.3404 21.8 28.4504 21.3136 27.5749 20.8034C26.7542 20.3253 25.8953 20.0252 24.938 20.0159C23.275 20.0003 21.6399 20.1908 20.0472 20.673C19.0454 20.9762 18.2113 21.5237 17.6421 22.4333C17.4507 22.7407 17.2178 23.0232 16.6269 22.9591C16.7615 22.5979 16.8111 22.2305 17.0088 21.9811C17.3803 21.5113 17.8522 21.1221 18.2569 20.6761C19.062 19.7872 20.1321 19.5533 21.2456 19.4964C22.6033 19.426 23.9683 19.367 25.3251 19.4198C27.2386 19.4943 28.9461 20.1297 30.3204 21.5402C30.9558 22.1932 31.6316 22.809 32.3157 23.4123C32.9501 23.9732 33.3371 24.649 33.4758 25.4831C33.4975 25.6177 33.6393 25.7315 33.7262 25.8547C33.7893 25.7129 33.9104 25.568 33.9032 25.4293C33.8877 25.1064 33.81 24.7867 33.7821 24.6128C33.9249 24.2816 34.0895 24.0664 34.0998 23.8439C34.1205 23.401 34.0584 22.9529 34.0274 22.5079C33.9736 21.7245 33.3278 21.3126 32.9211 20.7506C32.8517 20.6554 32.711 20.5385 32.7296 20.4629C33.0008 19.3608 32.2515 18.6146 31.8096 17.7619C31.731 17.6098 31.6471 17.4607 31.5023 17.1917C32.1977 17.0934 32.8248 16.9599 33.4582 16.9236C35.2102 16.8222 36.9654 16.7819 38.7174 16.6742C39.5019 16.6256 40.1818 16.7726 40.7396 17.349C41.2788 17.9057 41.82 18.4615 42.3602 19.0182L42.2567 19.1611C42.1791 19.1745 42.1025 19.1993 42.0249 19.2014C40.8948 19.2345 39.7606 19.2231 38.6346 19.3153C38.1555 19.3546 37.6857 19.5874 37.2282 19.7758C37.1279 19.8172 37.102 20.0386 37.042 20.1773C37.1806 20.1856 37.3421 20.2435 37.4538 20.1928C38.734 19.6061 40.0835 19.6236 41.4475 19.6764C42.2578 19.7085 43.0277 19.7996 43.6766 20.3398C43.7159 20.3729 43.7583 20.4039 43.7904 20.4433C43.809 20.466 43.8101 20.5043 43.8328 20.584C42.2184 20.1587 40.5926 20.1587 38.971 20.2456C37.5325 20.3232 36.4076 21.0694 35.4814 22.1301C35.4058 22.2171 35.4389 22.3982 35.4213 22.5358C35.5818 22.4851 35.7949 22.483 35.8953 22.3754C36.6704 21.5433 37.5894 20.9007 38.7133 20.7786C39.7668 20.6647 40.8472 20.7341 41.9111 20.8034C42.5165 20.8427 43.1167 21.0249 43.7097 21.178C44.2261 21.3115 44.3813 21.7193 44.3813 22.2077C44.3813 22.511 44.3813 22.8142 44.2872 23.1495C44.0667 22.8307 43.8784 22.482 43.6176 22.2005C43.3806 21.9459 43.095 21.6748 42.7783 21.5671C41.4568 21.1201 40.069 21.1097 38.7526 21.4461C38.0085 21.6354 37.2852 22.1674 36.716 22.7159C35.9543 23.4496 35.3458 24.3437 34.6876 25.1809C34.5541 25.3507 34.4672 25.5721 34.4072 25.7832C34.2085 26.4818 34.4072 26.8657 35.114 26.9972C35.9553 27.1545 36.8102 27.3076 37.6629 27.3325C38.9813 27.3707 40.3049 27.3231 41.6244 27.2631C42.6169 27.2186 43.362 26.6691 43.9839 25.9333C44.0822 25.8164 44.1857 25.7036 44.3441 25.5245C44.3534 25.6787 44.3699 25.7667 44.3627 25.8526C44.2385 27.1679 42.9801 28.3042 41.671 28.2866C41.5851 28.2856 41.493 28.2649 41.4133 28.2877C41.2063 28.3477 41.0056 28.4284 40.8017 28.4998C41.0045 28.5909 41.2001 28.7326 41.4123 28.7637C41.7672 28.8144 42.1336 28.7947 42.4947 28.8041L42.503 28.8123L42.502 28.8154ZM37.5066 29.2491C37.8119 29.2335 37.9599 29.2304 38.1069 29.217C38.4991 29.1807 38.8954 29.1642 39.2794 29.0855C39.3984 29.0617 39.4832 28.8651 39.5836 28.7482C39.446 28.6995 39.3073 28.6074 39.1717 28.6105C38.8654 28.6178 38.5436 28.7523 38.2569 28.6944C37.3379 28.507 36.4324 28.2473 35.5176 28.0372C35.382 28.0062 35.2196 28.089 35.0695 28.12C35.144 28.2411 35.1999 28.3808 35.2972 28.477C35.3768 28.5557 35.5093 28.5805 35.6149 28.6364C36.361 29.0307 37.0947 29.4312 37.607 30.1463C37.9961 30.6886 38.4277 31.1998 38.8592 31.71C38.941 31.8062 39.1086 31.829 39.2359 31.8859C39.2514 31.7348 39.3208 31.563 39.2711 31.4378C39.1914 31.235 39.0496 31.0497 38.9068 30.88C38.4794 30.3688 38.0386 29.8689 37.5056 29.2511L37.5066 29.2491ZM17.3379 31.3944C17.3379 31.4016 17.3379 31.4099 17.3379 31.4171C17.1661 31.4171 16.9933 31.4016 16.8235 31.4192C15.768 31.533 14.8024 31.8435 14.1629 32.7635C14.0666 32.9022 14.1173 33.1433 14.1008 33.3368C14.2591 33.2447 14.4682 33.1888 14.5654 33.0522C14.9328 32.5348 15.412 32.1943 16.0319 32.097C16.6383 32.0008 17.2541 31.9729 17.8626 31.889C18.0033 31.8694 18.1306 31.7472 18.2641 31.6717C18.1275 31.5796 18.0012 31.4492 17.8501 31.4047C17.6918 31.3581 17.5097 31.3944 17.3389 31.3944H17.3379ZM17.0564 29.6702C16.5183 29.8162 16.006 29.9362 15.5124 30.1059C15.4151 30.139 15.3861 30.3698 15.3261 30.5085C15.4596 30.524 15.5993 30.5727 15.7266 30.5499C16.1767 30.4661 16.628 30.376 17.0667 30.2508C17.2437 30.2001 17.3917 30.0521 17.5531 29.9486C17.3958 29.8607 17.2375 29.7727 17.0564 29.6713V29.6702Z" fill="#198120"/>
<path d="M40.8824 16.784C43.5793 16.8316 46.1582 17.4711 48.5623 18.8289L48.6575 18.6488C48.5395 18.5433 48.4308 18.4232 48.3015 18.3342C47.1559 17.5519 45.856 17.112 44.5159 16.9009C42.5651 16.5936 40.5916 16.2521 38.6274 16.25C36.1241 16.2469 33.6165 16.4259 31.1204 16.814C28.4897 17.2228 25.826 17.4867 23.1674 17.6264C20.873 17.7475 18.7847 16.8833 16.8318 15.717C16.7439 15.6643 16.6487 15.6063 16.5876 15.5276C15.7814 14.4907 14.5127 14.4369 13.4178 14.0022C12.9045 13.7984 12.4129 13.4817 11.9969 13.1185C11.8168 12.9611 11.7413 12.5348 11.8023 12.274C12.1304 10.8666 12.3901 9.4229 12.9231 8.09205C13.3329 7.06648 14.0584 6.17442 15.0136 5.47484C16.2088 4.60037 17.5697 4.24851 18.9523 3.8894C20.7023 3.43613 22.4295 2.88454 24.196 2.51405C26.5845 2.0142 28.9875 1.53299 31.4091 1.2546C33.8173 0.977256 36.241 1.10455 38.4908 2.20152C40.0493 2.96112 41.225 4.15744 41.8914 5.73873C42.2019 6.47557 42.1936 7.35521 42.2826 8.17587C42.4906 10.1101 42.6697 12.0474 42.857 13.9836C42.8601 14.0126 42.8301 14.0436 42.8073 14.0923C41.6927 13.8491 40.5844 13.5314 39.4533 13.3803C38.3014 13.2261 37.1289 13.2137 35.9636 13.1816C34.8801 13.1516 33.7894 13.1122 32.7121 13.1971C31.0687 13.3265 29.4222 13.4962 27.7964 13.7642C25.472 14.1482 23.1694 14.6594 20.8503 15.0702C19.8796 15.242 18.8944 15.213 17.9381 14.8933C17.7694 14.8363 17.5852 14.825 17.4083 14.7929C17.3721 14.8426 17.3358 14.8922 17.3006 14.9419C17.4569 15.1075 17.5873 15.3134 17.7736 15.4324C18.8799 16.1434 20.1114 16.5191 21.406 16.6826C23.2212 16.9113 25.0063 16.6257 26.7936 16.3473C27.726 16.2024 28.6781 16.1713 29.6064 16.0058C33.1053 15.3838 36.6311 15.2596 40.1549 15.5846C41.9794 15.7533 43.7728 16.2479 45.588 16.5418C46.5981 16.7053 47.6009 16.843 48.4753 17.4215C48.9058 17.7061 49.3467 17.9782 49.7462 18.3022C49.9511 18.4688 50.1591 18.7161 50.2139 18.9614C50.2884 19.2905 50.216 19.6516 50.2067 19.9994C49.8859 19.9704 49.5412 20.0076 49.2484 19.901C47.6329 19.3112 46.0496 18.6281 44.4145 18.1024C43.7687 17.8944 43.0174 17.9741 42.3168 17.9989C42.0405 18.0083 41.88 17.9844 41.7134 17.7609C41.4609 17.4215 41.167 17.1141 40.8814 16.7819L40.8824 16.784Z" fill="#D7031A"/>
<path d="M43.512 54.675C44.1485 55.7305 45.3562 55.8599 46.241 54.8964C46.8443 54.2393 47.4135 53.55 47.9848 52.8639C48.0676 52.7646 48.08 52.6062 48.1255 52.4748C47.9558 52.4976 47.7281 52.4583 47.6277 52.5535C47.3173 52.8474 47.0544 53.192 46.775 53.519C46.4738 53.8719 46.1675 54.2196 45.8798 54.5829C45.5011 55.0599 44.9836 55.0941 44.4714 54.9699C44.2871 54.9254 44.0791 54.6418 44.0388 54.4359C43.9932 54.2082 44.0491 53.8771 44.1971 53.7094C44.787 53.0399 45.439 52.4241 46.0444 51.768C46.1437 51.6604 46.1261 51.4441 46.1634 51.2785C46.0081 51.3302 45.8063 51.3375 45.706 51.442C44.9257 52.2637 44.1743 53.1144 43.3899 53.9319C43.2533 54.0737 42.9998 54.1648 42.798 54.1689C42.3892 54.1772 41.9752 54.1296 41.5685 54.0685C41.0738 53.995 40.781 53.5583 40.9693 53.0978C41.4298 51.9739 42.0218 50.9318 43.0805 50.2415C43.1664 50.1857 43.2792 50.1318 43.3164 50.0491C43.3651 49.9414 43.3495 49.8048 43.362 49.6806C43.2512 49.6806 43.1053 49.6351 43.0349 49.6889C42.6003 50.0232 42.1149 50.3254 41.7765 50.7435C41.3367 51.2847 40.9911 51.9108 40.6568 52.5286C40.4933 52.8308 40.3122 52.956 39.9779 52.9529C39.0527 52.9436 37.933 52.1095 37.696 51.2112C37.6598 51.0756 37.6608 50.8873 37.7281 50.7724C38.1648 50.0315 38.5912 49.2967 39.4656 48.9428C40.7748 48.4129 41.8241 47.4753 42.9066 46.6008C43.007 46.5191 43.0153 46.3225 43.066 46.1796C42.9149 46.1993 42.7317 46.1714 42.6189 46.2469C42.1532 46.5615 41.7093 46.9072 41.1577 47.1876C41.2332 47.0003 41.2653 46.7726 41.3947 46.636C41.6182 46.398 41.552 46.2759 41.3274 46.1051C40.3587 45.3693 39.03 45.4242 38.0975 46.2086C37.5853 46.6391 37.044 47.0469 36.4748 47.3956C35.7608 47.8334 34.9815 47.7599 34.2385 47.4556C33.7624 47.2611 33.6362 46.6578 33.9104 46.1703C34.1629 45.7222 34.7797 45.5163 35.175 45.7481C35.8984 46.1724 35.9253 46.3783 35.3675 46.9755C35.2785 47.0707 35.2609 47.2342 35.2102 47.3656C35.3655 47.3594 35.5569 47.4101 35.6707 47.3377C36.4397 46.8554 36.4935 46.221 35.8301 45.6042C35.6811 45.4656 35.5041 45.3559 35.2475 45.1644C36.0133 44.5238 36.7191 43.8232 37.5335 43.2882C38.1907 42.8566 38.9741 42.6103 39.715 42.3164C39.8651 42.2564 40.1228 42.2895 40.2511 42.3868C40.7572 42.7676 41.3502 43.1123 41.6886 43.6194C42.116 44.2579 42.6541 44.6625 43.304 44.9968C44.7653 45.7481 45.9367 46.8099 46.9727 48.1024C48.1669 49.5916 49.1035 51.2071 49.8941 52.9229C50.0804 53.3255 50.2605 53.7591 50.3008 54.1917C50.3257 54.4597 50.1621 54.8571 49.949 55.0185C49.0414 55.7057 48.0324 56.1776 46.9219 56.5098C44.3823 57.2694 41.8459 56.813 39.2959 56.7116C37.6391 56.6454 36.4262 55.7647 35.174 54.883C34.9919 54.7546 34.8097 54.6118 34.6059 54.5301C33.6269 54.1389 33.363 53.3244 33.2957 52.3837C33.2885 52.2802 33.2729 52.1737 33.2895 52.0743C33.5586 50.4765 32.6934 49.3619 31.6968 48.296C31.4515 48.0341 31.2156 47.7547 31.0241 47.4536C30.8047 47.1079 30.6733 46.7085 30.9952 46.3525C31.3532 45.9571 31.7817 45.6653 32.3602 45.7916C32.8414 45.8961 33.157 46.1941 33.2636 46.6774C33.4892 47.7082 33.8545 48.0331 34.9184 48.1801C35.0612 48.1997 35.2247 48.3508 35.3044 48.4854C35.3975 48.6416 35.4555 48.8486 35.4462 49.0297C35.3841 50.2695 36.1188 51.0322 37.0026 51.7245C37.4207 52.0515 37.8036 52.4241 38.2093 52.7677C38.7236 53.2044 39.3011 53.4662 39.9965 53.4631C40.1549 53.4631 40.4177 53.5863 40.455 53.7073C40.6785 54.4349 41.2415 54.6284 41.8914 54.6698C42.4192 54.7029 42.9511 54.677 43.51 54.677L43.512 54.675Z" fill="#198120"/>
<path d="M45.1388 31.6727C45.9926 32.6828 45.9874 33.431 45.084 34.3593C44.283 35.181 43.4478 35.9726 42.6686 36.815C42.1429 37.3822 41.5074 37.5891 40.7747 37.5943C38.9854 37.6067 37.1941 37.5705 35.4058 37.6295C33.0959 37.705 30.8492 37.3356 28.6129 36.8244C28.2299 36.7364 27.8284 36.6857 27.4362 36.6898C26.2099 36.7022 24.9835 36.6805 23.7976 36.3483C22.7896 36.0658 21.8065 35.6912 20.8109 35.3621C20.5015 35.2596 20.191 35.1489 19.8733 35.0868C19.092 34.9347 18.4234 34.5704 17.8004 34.0892C17.6856 34.0002 17.4776 34.0333 17.313 34.0095C17.3855 34.1513 17.4237 34.3334 17.5365 34.4276C18.1047 34.9078 18.7204 35.2751 19.4687 35.4656C20.4332 35.7098 21.3625 36.0927 22.3104 36.4032C23.6879 36.8533 25.0777 37.1855 26.5534 37.1307C27.3534 37.1007 28.1906 37.1545 28.9606 37.3594C31.3501 37.9938 33.7759 38.1624 36.2296 38.1231C37.8616 38.0973 39.4936 38.0579 41.1256 38.0279C41.7951 38.0155 42.355 37.7754 42.8435 37.3107C43.2015 36.9703 43.6103 36.6805 44.0098 36.3576C44.4092 36.7374 44.5003 37.2 44.2437 37.5943C43.8069 38.2649 43.3278 38.9303 42.7586 39.4881C41.9845 40.2467 40.9983 40.4868 39.9013 40.4195C38.8923 40.3574 37.875 40.4257 36.8619 40.4247C34.4848 40.4226 32.1025 40.5054 29.7326 40.375C28.2517 40.2933 26.7594 39.9921 25.3281 39.5906C24.2146 39.2781 23.1766 38.683 22.1273 38.1676C21.0624 37.645 20.0151 37.0851 18.9792 36.5066C18.0064 35.9644 17.0336 35.4148 16.1167 34.7846C15.8435 34.5963 15.6438 34.1399 15.6148 33.7891C15.5548 33.0574 15.9428 32.7656 16.6445 32.9549C18.172 33.3689 19.6684 33.9288 21.2166 34.2237C24.2726 34.8053 27.2851 35.6529 30.4084 35.8598C33.0856 36.0368 35.7628 36.2272 38.4432 36.3411C39.328 36.3783 40.2232 36.2107 41.1111 36.1124C42.7069 35.9354 43.6341 34.8664 44.344 33.5728C44.67 32.9798 44.8729 32.3195 45.1388 31.6707V31.6727Z" fill="#A13210"/>
<path d="M46.4376 16.338C46.0268 16.2603 45.6108 16.2055 45.2061 16.0999C43.1509 15.5659 41.0676 15.2224 38.9451 15.1085C36.3227 14.9678 33.7097 15.1127 31.108 15.3942C29.0051 15.6218 26.9188 15.9944 24.8232 16.2841C23.0256 16.5325 21.2477 16.4321 19.5091 15.8816C19.2669 15.805 19.0403 15.6818 18.8219 15.4894C19.4739 15.4894 20.131 15.5359 20.7778 15.4769C21.4598 15.4148 22.1356 15.2658 22.8093 15.1323C25.2547 14.649 27.6711 14.0343 30.1631 13.7694C31.8665 13.5883 33.5555 13.4682 35.2641 13.5717C35.708 13.5986 36.1582 13.5407 36.6053 13.5158C37.7136 13.4538 38.8054 13.5438 39.8827 13.8294C41.0594 14.1419 42.2598 14.3406 43.364 14.9243C44.1185 15.3227 44.9702 15.537 45.7732 15.8454C46.0195 15.9406 46.2483 16.0772 46.4852 16.1951C46.4697 16.2417 46.4542 16.2893 46.4387 16.3359L46.4376 16.338Z" fill="#D7031A"/>
<path d="M29.1003 22.5812C27.7839 22.5812 26.4676 22.5585 25.1522 22.5875C23.7293 22.6185 22.3042 22.6547 20.8865 22.7706C20.1258 22.8327 19.3828 23.0894 18.6242 23.2115C18.4007 23.2477 18.1502 23.1215 17.8625 23.0583C18.3334 22.1787 18.9305 21.564 19.7905 21.3073C20.6919 21.0372 21.614 20.8157 22.5433 20.6688C23.3029 20.5487 24.0853 20.5674 24.8573 20.5291C25.828 20.4804 26.6787 20.8157 27.4735 21.3404C28.0157 21.6985 28.5704 22.039 29.12 22.3867C29.1137 22.4519 29.1075 22.5171 29.1024 22.5823L29.1003 22.5812Z" fill="#198120"/>
<path d="M27.8636 23.0749C28.5901 23.0283 29.2379 22.9807 29.8878 22.9476C30.6857 22.9072 31.1783 23.404 31.5022 24.0228C31.8593 24.7038 32.0973 25.4479 32.3788 26.1671C32.4067 26.2396 32.3829 26.3327 32.3829 26.343C30.872 27.0261 29.3549 27.4452 27.7322 26.9961C28.5746 25.2647 28.6263 24.1646 27.8646 23.0759L27.8636 23.0749Z" fill="#F5F5F5"/>
<path d="M33.5969 23.992C32.8124 23.2459 32.0301 22.5028 31.2508 21.7556C30.9165 21.4348 30.6247 21.055 30.2511 20.7932C29.6685 20.3844 29.0331 20.0502 28.4163 19.6921C28.2797 19.6124 28.1224 19.5669 27.9071 19.4779C31.05 18.5889 34.1692 21.7774 33.5979 23.992H33.5969Z" fill="#198120"/>
<path d="M44.2768 24.2755C43.6476 23.9681 43.0329 23.6277 42.3861 23.3648C41.822 23.1351 41.2342 22.9177 40.6371 22.8318C39.8403 22.7159 39.0237 22.7346 38.2165 22.689C38.1017 22.6828 37.9889 22.6414 37.814 22.482C38.171 22.2854 38.5084 21.9801 38.8882 21.9129C40.0793 21.7018 41.2891 21.6645 42.472 21.9863C42.7327 22.0577 43.0029 22.2399 43.1809 22.4469C43.572 22.9022 43.9104 23.4041 44.2633 23.8926C44.3182 23.9692 44.3347 24.0737 44.3689 24.1658C44.3389 24.202 44.3089 24.2382 44.2778 24.2734L44.2768 24.2755Z" fill="#198120"/>
<path d="M41.1411 26.9227C41.85 25.4201 41.8273 24.7381 40.8938 23.2644C41.3233 23.43 41.6524 23.5355 41.9628 23.6804C42.5693 23.9629 43.1602 24.2796 43.7666 24.559C44.2271 24.7712 44.2675 24.8892 43.9146 25.2462C43.541 25.6239 43.2047 26.0741 42.7607 26.338C42.2754 26.6257 41.6855 26.7354 41.1411 26.9227Z" fill="#F5F5F5"/>
<path d="M36.0454 49.9125C35.9574 49.2492 35.8912 48.7441 35.8415 48.3736C36.659 47.8169 37.4362 47.2943 38.2052 46.7613C38.6615 46.4446 39.0393 45.9603 39.804 46.1228C38.7816 47.6171 37.3814 48.6489 36.0454 49.9125Z" fill="#198120"/>
<path d="M23.0246 2.41051C21.1763 2.91243 19.417 3.38951 17.6422 3.87176C17.6949 3.27774 18.1813 2.89898 19.5049 2.3774C20.7095 1.90239 22.4212 1.8672 23.0246 2.41051Z" fill="#D7031A"/>
<path d="M21.6471 24.6264C20.8647 24.2901 20.0523 23.9392 19.2389 23.5894C19.2358 23.5501 19.2327 23.5108 19.2296 23.4715C20.3359 23.3369 21.4432 23.2024 22.5816 23.0637C22.2328 23.6474 21.9213 24.1669 21.6471 24.6264Z" fill="#F5F5F5"/>
<path d="M26.2586 25.5577C25.8032 25.5929 25.5879 25.3238 25.5466 24.9254C25.5021 24.5032 26.035 24.0603 26.5266 24.0665C26.9385 24.0716 27.2469 24.3438 27.2458 24.7019C27.2438 25.2317 26.8588 25.566 26.2586 25.5588V25.5577Z" fill="#F5F5F5"/>
<path d="M35.856 26.6618C35.796 26.6453 35.6356 26.6008 35.4762 26.5563C34.7849 26.3607 34.671 26.1413 35.0581 25.5328C35.3841 25.0205 35.7949 24.5621 36.1902 24.0498C36.0733 24.9667 35.9657 25.805 35.856 26.6618Z" fill="#F5F5F5"/>
<path d="M40.6475 25.1178C40.6413 25.5349 40.4353 25.7294 40.01 25.7274C39.5557 25.7243 39.3974 25.4469 39.417 25.0681C39.4336 24.7629 39.5195 24.4514 39.9489 24.4596C40.4602 24.47 40.6558 24.6449 40.6475 25.1178Z" fill="#F5F5F5"/>
<path d="M24.3254 23.8459C24.0428 24.0208 23.8804 24.2019 23.7345 24.1884C23.5947 24.175 23.4737 23.9607 23.3443 23.8345C23.4788 23.7062 23.6051 23.4878 23.75 23.4733C23.8897 23.4599 24.0501 23.6565 24.3243 23.8459H24.3254Z" fill="#F5F5F5"/>
<path d="M24.4744 25.1759C24.2323 25.3404 24.0874 25.5143 23.9487 25.5102C23.8245 25.506 23.7076 25.3042 23.5886 25.1904C23.7283 25.0652 23.8525 24.8975 24.017 24.8344C24.0874 24.8075 24.2416 24.9948 24.4744 25.1769V25.1759Z" fill="#F5F5F5"/>
<path d="M37.6764 23.7093C37.8306 23.9577 38.0034 24.1119 37.9858 24.2402C37.9661 24.3809 37.7716 24.4968 37.6526 24.6231C37.5429 24.4968 37.3504 24.3726 37.3452 24.2422C37.34 24.1025 37.5118 23.9566 37.6753 23.7083L37.6764 23.7093Z" fill="#F5F5F5"/>
<path d="M37.7353 25.3154C37.8895 25.5483 38.0447 25.6807 38.024 25.7759C37.9971 25.8991 37.8305 25.9912 37.7239 26.0978C37.6256 25.9984 37.4569 25.9053 37.4486 25.7987C37.4404 25.6838 37.5821 25.5586 37.7353 25.3154Z" fill="#F5F5F5"/>
<path d="M42.4937 28.8071C42.5092 28.7926 42.5248 28.7782 42.5403 28.7637C42.5279 28.7813 42.5144 28.7978 42.502 28.8154L42.4937 28.8071Z" fill="#198120"/>
<path d="M41.1183 47.3834L41.0862 47.3958L41.0894 47.3647L41.1183 47.3834Z" fill="#198120"/>
<path d="M37.5066 29.249C38.0396 29.8668 38.4804 30.3677 38.9078 30.8779C39.0506 31.0476 39.1924 31.2329 39.2721 31.4357C39.3218 31.5609 39.2524 31.7327 39.2369 31.8838C39.1096 31.8269 38.942 31.8041 38.8602 31.7079C38.4287 31.1987 37.9971 30.6865 37.608 30.1442C37.0958 29.4301 36.362 29.0286 35.6159 28.6343C35.5103 28.5784 35.3779 28.5546 35.2982 28.4749C35.1999 28.3777 35.144 28.239 35.0705 28.1179C35.2206 28.0879 35.382 28.0041 35.5186 28.0351C36.4334 28.2452 37.3379 28.5049 38.2579 28.6923C38.5446 28.7502 38.8664 28.6167 39.1728 28.6084C39.3094 28.6053 39.447 28.6974 39.5846 28.7461C39.4843 28.863 39.3994 29.0586 39.2804 29.0834C38.8964 29.1621 38.5001 29.1786 38.1079 29.2149C37.9609 29.2283 37.8129 29.2314 37.5076 29.2469L37.5066 29.249Z" fill="#0A0805"/>
<path d="M17.3389 31.3943C17.5107 31.3943 17.6928 31.3581 17.8501 31.4046C18.0012 31.4491 18.1275 31.5795 18.2641 31.6716C18.1306 31.7472 18.0043 31.8693 17.8626 31.889C17.254 31.9728 16.6383 32.0007 16.0319 32.097C15.413 32.1953 14.9328 32.5347 14.5654 33.0522C14.4692 33.1888 14.2591 33.2436 14.1008 33.3367C14.1173 33.1432 14.0666 32.9021 14.1629 32.7634C14.8024 31.8434 15.768 31.533 16.8235 31.4191C16.9933 31.4005 17.1661 31.417 17.3379 31.417C17.3379 31.4098 17.3379 31.4015 17.3379 31.3943H17.3389Z" fill="#0A0805"/>
<path d="M17.0574 29.6702C17.2385 29.7716 17.3968 29.8596 17.5541 29.9476C17.3927 30.0511 17.2447 30.2001 17.0678 30.2498C16.6279 30.375 16.1778 30.466 15.7276 30.5488C15.6013 30.5726 15.4616 30.524 15.3271 30.5074C15.3871 30.3677 15.4161 30.138 15.5134 30.1049C16.007 29.9341 16.5193 29.8151 17.0574 29.6692V29.6702Z" fill="#0A0805"/>
</svg>
