<svg width="50" height="57" viewBox="0 0 50 57" fill="none" xmlns="http://www.w3.org/2000/svg">
<path d="M41.6407 17.6258C41.9045 18.7602 42.8214 19.0492 43.519 19.5692C43.7932 19.7743 44.0788 19.9815 44.2972 20.2395C44.5756 20.5699 44.6863 20.9408 44.233 21.2578C44.1616 21.3075 44.0933 21.4194 44.0912 21.5033C44.0778 22.2409 44.0198 22.9837 44.0892 23.714C44.2247 25.1529 43.8263 26.3774 42.7759 27.3636C42.5141 27.6101 42.5193 27.7582 42.7614 27.9872C43.4093 28.5963 43.9091 29.2914 44.2268 30.1461C44.3986 30.6091 44.855 30.9582 45.0889 31.4068C45.628 32.4386 45.5059 33.0145 44.6759 33.8526C44.47 34.0608 44.2703 34.2742 44.0716 34.4897C43.6939 34.8999 43.432 35.2843 43.847 35.8768C44.1699 36.3378 43.9888 36.8754 43.7166 37.3437C43.6483 37.4618 43.551 37.5633 43.4662 37.6731C43.0264 38.2429 42.5762 38.7163 42.8111 39.6175C43.0667 40.5955 42.4106 41.417 41.7845 42.1587C41.2267 42.8196 41.3167 43.178 42.0898 43.6318C42.8608 44.0845 43.6659 44.4988 44.3686 45.0427C45.0278 45.5524 45.5856 46.1988 46.1641 46.8079C46.5304 47.1943 46.8885 47.5983 47.1886 48.0365C48.2587 49.6008 49.2149 51.2334 49.8721 53.0193C50.1608 53.8025 49.9621 54.3308 49.2625 54.8001C47.2766 56.1292 45.092 56.8077 42.6952 56.7238C41.2174 56.672 39.7385 56.6016 38.2649 56.4845C37.2186 56.4016 36.2686 56.007 35.4034 55.3968C34.7277 54.9213 33.9981 54.5194 33.344 54.018C32.8897 53.6689 32.5234 53.2048 32.067 52.7417C32.0246 52.7935 31.9159 52.9541 31.7783 53.0846C31.4585 53.3871 31.1698 53.7787 30.7868 53.9486C29.544 54.5007 28.2679 54.9037 26.8595 54.8716C25.0536 54.8301 23.2446 54.8954 21.4388 54.9648C19.6878 55.0322 17.9368 55.2766 16.192 55.2342C14.3447 55.1886 12.4902 54.9793 10.6647 54.683C9.31829 54.4645 7.9657 54.1102 6.70211 53.6005C5.22017 53.0038 3.70821 52.3885 2.52224 51.2355C1.11067 49.8629 0.523889 48.1028 0.126495 46.2371C-0.183968 44.7806 0.156509 43.3676 0.303462 41.938C0.40695 40.9301 0.429717 39.9117 0.56839 38.909C0.847808 36.9003 1.08479 34.8771 1.52565 32.9016C1.85164 31.442 2.4498 30.0414 2.97034 28.6295C3.27253 27.81 3.61818 26.9999 4.01868 26.224C5.27295 23.7896 6.50963 21.3448 7.85808 18.9622C8.60836 17.6362 9.43212 16.3371 10.5695 15.267C11.0869 14.7801 11.4667 14.1441 11.9386 13.537C11.7378 13.3961 11.5516 13.249 11.3498 13.1278C10.735 12.758 10.4287 12.2214 10.5995 11.518C10.9472 10.0801 11.1511 8.56664 11.7606 7.24376C12.5668 5.49304 13.8366 4.04585 15.8184 3.44294C16.0533 3.37146 16.2365 3.10419 16.4258 2.91047C16.7073 2.62249 16.9226 2.23816 17.2527 2.03615C18.4894 1.27785 19.813 0.740206 21.3063 0.898703C21.6468 0.93496 22.0359 1.04788 22.2874 1.26128C22.572 1.50265 22.7986 1.49229 23.1194 1.43428C25.6766 0.974325 28.2245 0.414924 30.8024 0.121757C33.1898 -0.150692 35.6032 -0.0180932 37.8354 1.05927C39.1456 1.69119 40.1463 2.69086 40.9949 3.88321C41.7338 4.92121 41.7835 6.10528 41.918 7.2738C42.1508 9.3094 42.3164 11.3523 42.542 13.3889C42.5638 13.5847 42.7811 13.8654 42.9643 13.9214C45.033 14.5616 46.8099 15.7415 48.6292 16.8624C49.4198 17.3492 49.9249 17.9045 49.9911 18.8316C50.0584 19.7743 49.3174 20.0344 48.5619 19.7484C46.8595 19.1041 45.1748 18.409 43.4569 17.8123C42.9115 17.6238 42.2802 17.6838 41.6407 17.6248V17.6258ZM41.7245 28.1301C41.3633 28.1208 40.998 28.1405 40.642 28.0897C40.4298 28.0597 40.2343 27.9178 40.0314 27.8256C40.2353 27.7531 40.4361 27.6733 40.643 27.6132C40.7227 27.5904 40.8148 27.6111 40.9007 27.6122C42.2098 27.6298 43.4682 26.4913 43.5924 25.1757C43.6007 25.0897 43.5831 25.0016 43.5738 24.8473C43.4155 25.0265 43.312 25.1394 43.2137 25.2565C42.5917 25.993 41.8466 26.5431 40.8541 26.5876C39.5347 26.6467 38.2121 26.6943 36.8926 26.6571C36.0399 26.6322 35.1861 26.4789 34.3437 26.3214C33.6379 26.1888 33.4392 25.8055 33.6369 25.1063C33.6969 24.8949 33.7839 24.6743 33.9174 24.5034C34.5755 23.6643 35.184 22.7702 35.9457 22.0358C36.5139 21.4867 37.2383 20.9553 37.9824 20.7647C39.2987 20.428 40.6865 20.4384 42.008 20.8859C42.3247 20.9936 42.6103 21.265 42.8473 21.5199C43.1081 21.8006 43.2965 22.1497 43.5169 22.4698C43.6111 22.1342 43.6121 21.8307 43.6111 21.5271C43.6111 21.0371 43.4558 20.629 42.9394 20.4964C42.3464 20.3431 41.7462 20.1607 41.1408 20.1214C40.077 20.052 38.9965 19.9826 37.943 20.0965C36.8181 20.2177 35.9002 20.8621 35.1251 21.695C35.0247 21.8027 34.8125 21.8048 34.6511 21.8555C34.6687 21.7177 34.6356 21.5354 34.7111 21.4494C35.6373 20.3876 36.7622 19.6407 38.2007 19.563C39.8224 19.475 41.4492 19.476 43.0626 19.9018C43.0398 19.822 43.0388 19.7847 43.0201 19.7609C42.9881 19.7215 42.9456 19.6904 42.9063 19.6573C42.2574 19.1165 41.4885 19.0254 40.6772 18.9933C39.3122 18.9404 37.9637 18.9218 36.6836 19.5102C36.5718 19.5609 36.4104 19.5019 36.2717 19.4946C36.3317 19.3558 36.3576 19.1331 36.458 19.0927C36.9144 18.9052 37.3842 18.6711 37.8644 18.6317C38.9903 18.5406 40.1235 18.5509 41.2546 18.5178C41.3323 18.5157 41.4099 18.4908 41.4865 18.4774L41.5899 18.3344C41.0497 17.7771 40.5085 17.2218 39.9693 16.6635C39.4115 16.0864 38.7326 15.9393 37.9472 15.988C36.1962 16.0958 34.44 16.1362 32.6879 16.2377C32.0546 16.2739 31.4274 16.4076 30.732 16.506C30.8779 16.7753 30.9607 16.9245 31.0394 17.0768C31.4802 17.9304 32.2305 18.6773 31.9594 19.7806C31.9407 19.8562 32.0815 19.9732 32.1508 20.0685C32.5586 20.6311 33.2033 21.0434 33.2571 21.8276C33.2881 22.274 33.3502 22.7216 33.3295 23.1649C33.3192 23.3877 33.1557 23.6031 33.0118 23.9346C33.0398 24.1087 33.1174 24.4288 33.1329 24.752C33.1391 24.8908 33.018 25.0358 32.9559 25.1777C32.8701 25.0545 32.7283 24.9395 32.7055 24.8058C32.5679 23.9709 32.1808 23.2944 31.5454 22.733C30.8624 22.129 30.1866 21.5126 29.5502 20.859C28.1769 19.447 26.4683 18.8109 24.5548 18.7363C23.1981 18.6835 21.8331 18.7436 20.4753 18.813C19.3618 18.87 18.2917 19.1041 17.4866 19.994C17.0819 20.4404 16.6111 20.83 16.2385 21.3003C16.0409 21.5499 15.9912 21.9177 15.8566 22.2792C16.4476 22.3434 16.6804 22.0606 16.8719 21.753C17.441 20.8414 18.2741 20.2944 19.2769 19.9909C20.8696 19.5081 22.5047 19.3175 24.1678 19.333C25.1261 19.3424 25.985 19.6428 26.8046 20.1214C27.6801 20.6321 28.5701 21.119 29.4684 21.5872C30.2539 21.9964 30.9297 22.5071 31.296 23.339C31.5599 23.9377 31.7762 24.5583 32.0494 25.1539C32.1539 25.3808 32.3226 25.6056 32.5192 25.7579C32.9798 26.1173 33.0791 26.6881 32.6683 27.0942C32.4013 27.3584 32.1094 27.637 31.7741 27.7841C30.9286 28.154 30.4433 28.8978 29.8099 29.4945C29.2283 30.0425 28.5939 30.5822 27.8871 30.9354C26.9081 31.4254 25.8432 31.7466 24.8073 32.1174C24.5527 32.2086 24.2671 32.2448 23.996 32.2407C23.8718 32.2386 23.7507 32.0781 23.6286 31.989C23.7414 31.9144 23.8438 31.8087 23.967 31.7694C24.3923 31.6368 24.8301 31.5466 25.2523 31.4047C25.8391 31.2079 26.4062 30.9448 26.9992 30.7718C28.3394 30.3802 29.2625 29.4737 30.1256 28.3715C29.6961 28.3249 29.3266 28.2752 28.9561 28.2451C27.141 28.097 25.3248 27.9634 23.5106 27.8069C22.5389 27.723 21.5961 27.4899 20.8148 26.8798C20.1245 26.3411 19.4839 25.7361 18.8319 25.1487C18.7626 25.0866 18.7077 24.9074 18.746 24.8504C18.7957 24.7779 18.954 24.7313 19.0513 24.7499C19.1786 24.7748 19.308 24.8545 19.4094 24.9436C19.8358 25.3197 20.229 25.7371 20.6782 26.0811C21.1087 26.4105 21.5619 26.8114 22.0638 26.9295C23.2612 27.2102 24.4886 27.3874 25.7128 27.521C26.9247 27.6526 28.1624 27.5894 29.3618 27.779C30.4474 27.9499 31.2846 27.5697 32.0877 26.972C32.5358 26.6394 32.5109 26.453 32.1105 26.1588C31.6582 26.2769 31.2194 26.3224 30.8438 26.5006C29.4777 27.1491 28.0589 27.1108 26.6453 26.8197C25.4024 26.5649 24.1791 26.2012 22.958 25.8511C22.0038 25.5776 21.1563 25.1073 20.4422 24.3935C20.2083 24.1594 19.8751 24.0061 19.5636 23.8714C18.8702 23.571 18.1665 23.2913 17.4555 23.0334C17.1192 22.9111 16.7487 22.764 16.4093 22.7972C15.8111 22.8562 15.3827 22.59 15.4603 21.9892C15.5079 21.6214 15.6838 21.2381 15.9012 20.9325C16.1878 20.5285 16.5831 20.2043 16.9112 19.8282C17.7401 18.8783 18.8299 18.3883 20.0376 18.324C22.1135 18.2153 24.1967 18.236 26.2779 18.208C26.9123 18.1997 27.5477 18.2381 28.18 18.207C29.3887 18.1479 30.5219 18.2764 31.3747 19.273C31.385 19.2854 31.4336 19.2647 31.5475 19.246C31.4285 18.9352 31.3405 18.6245 31.1956 18.3437C30.9586 17.8848 30.674 17.4518 30.4288 16.997C30.2694 16.7018 30.0624 16.5909 29.7188 16.6293C28.2007 16.7981 26.6722 16.8945 25.1612 17.1141C23.4806 17.3575 21.8082 17.515 20.1379 17.1358C18.6374 16.795 17.1999 16.2688 15.9198 15.3903C15.5255 15.1199 15.2243 14.689 14.8052 14.4849C14.2071 14.1938 13.5344 14.0612 12.9072 13.825C12.5626 13.6955 12.3256 13.7566 12.0938 14.0343C11.4325 14.8247 10.6761 15.5467 10.1058 16.3962C9.04301 17.978 8.034 19.6003 7.09847 21.2609C6.16294 22.9215 5.37333 24.665 4.46781 26.3442C3.39982 28.327 2.60193 30.4113 2.04827 32.5846C1.79886 33.5625 1.6933 34.5798 1.54738 35.5826C1.33523 37.0443 1.13654 38.507 0.951294 39.9729C0.864364 40.6555 0.838493 41.3444 0.754667 42.0271C0.567354 43.5427 0.256892 45.051 0.642902 46.5842C1.0641 48.2561 1.61672 49.8473 2.95172 51.0532C4.02385 52.0207 5.33504 52.5697 6.62864 53.1001C7.81254 53.586 9.08233 53.8729 10.3294 54.1899C12.2408 54.6758 14.2102 54.7473 16.163 54.7649C17.9616 54.7804 19.7623 54.5536 21.563 54.4821C23.2653 54.4147 24.9739 54.3329 26.6742 54.3992C28.1965 54.4593 29.5998 54.1081 30.8862 53.3954C31.3809 53.1219 31.7793 52.4858 31.9811 51.9275C32.1632 51.425 32.0308 50.8025 32.008 50.2337C32.0008 50.0535 31.9459 49.8463 31.8404 49.7044C31.3395 49.031 30.8106 48.3784 30.2994 47.7123C30.1121 47.4688 29.9144 47.2254 29.7716 46.955C29.3597 46.1698 29.4953 45.5938 30.1876 45.0489C30.8893 44.4968 31.7803 44.4564 32.3775 44.9505C32.4789 45.0344 32.5772 45.1214 32.7407 45.2613C33.7776 44.3859 34.7691 43.4836 35.8319 42.6766C36.5242 42.1514 37.2952 41.7091 38.0807 41.3341C38.8392 40.9715 39.6164 40.9891 40.2715 41.6563C40.5085 41.8976 40.7921 42.0934 41.0466 42.3047C42.1664 41.3693 42.7231 40.0019 42.2699 39.2353C41.237 40.1904 39.9807 40.3468 38.653 40.2391C38.2421 40.206 37.8282 40.1542 37.4183 40.1666C35.7843 40.2184 34.1512 40.3178 32.5172 40.3499C31.6417 40.3676 30.762 40.3075 29.8875 40.2391C29.2273 40.1873 28.5722 40.0671 27.9151 39.977C27.5746 39.9304 27.232 39.8983 26.8947 39.8341C25.8515 39.6341 24.7442 39.5823 23.7838 39.1804C21.9759 38.4252 20.2538 37.4649 18.4956 36.5906C17.2641 35.9783 15.9974 35.4148 14.977 34.4617C14.7121 34.2141 14.4647 33.8795 14.3592 33.5387C14.0301 32.4821 14.798 31.6202 15.8805 31.787C16.2365 31.8419 16.5914 31.9227 16.9381 32.0232C18.1613 32.3774 19.3701 32.7804 20.6026 33.0953C21.6168 33.3543 22.6527 33.5335 23.6845 33.7148C25.5959 34.0505 27.5073 34.3975 29.428 34.6689C30.5147 34.8233 31.6251 34.8015 32.7179 34.9227C35.0505 35.1838 37.3863 35.2957 39.7241 35.0677C40.6358 34.9787 41.5692 34.7787 42.1809 34.0173C42.6724 33.4061 43.1102 32.7307 43.4548 32.0252C44.172 30.5563 43.7415 29.1837 42.3433 28.2513C42.3019 28.298 42.2512 28.3415 42.215 28.3953C41.6862 29.1878 40.8924 29.3225 40.0314 29.2562C39.9093 29.2469 39.7955 29.1122 39.6785 29.0355C39.7975 28.9444 39.9052 28.8159 40.0397 28.7714C40.1804 28.7248 40.3481 28.7724 40.5012 28.7569C40.9866 28.7061 41.4709 28.646 41.7317 28.1415C41.7441 28.1239 41.7576 28.1073 41.77 28.0897C41.7545 28.1042 41.739 28.1187 41.7234 28.1332L41.7245 28.1301ZM40.1142 16.0947C40.4009 16.4273 40.6948 16.736 40.9462 17.0747C41.1129 17.2985 41.2733 17.3233 41.5496 17.313C42.2502 17.2892 43.0015 17.2084 43.6473 17.4166C45.2824 17.9428 46.8657 18.6265 48.4812 19.217C48.773 19.3237 49.1187 19.2864 49.4395 19.3154C49.4488 18.9674 49.5213 18.6048 49.4467 18.2764C49.3919 18.0309 49.1839 17.7823 48.979 17.6165C48.5795 17.2923 48.1376 17.0198 47.7081 16.7349C46.8326 16.1558 45.8298 16.017 44.8208 15.8544C43.0046 15.5602 41.2122 15.064 39.3877 14.8962C35.864 14.5709 32.3381 14.6952 28.8392 15.3178C27.9109 15.4825 26.9599 15.5146 26.0264 15.6596C24.2392 15.9383 22.453 16.2232 20.6388 15.9953C19.3442 15.8326 18.1137 15.4566 17.0064 14.7439C16.8201 14.6237 16.6897 14.4186 16.5335 14.2528C16.5697 14.2031 16.6059 14.1534 16.6411 14.1037C16.8181 14.1358 17.0023 14.1472 17.1709 14.2042C18.1272 14.5243 19.1124 14.5522 20.0831 14.3813C22.4033 13.9711 24.7059 13.4583 27.0292 13.074C28.655 12.8057 30.3005 12.6358 31.9449 12.5063C33.0232 12.4213 34.1129 12.4617 35.1965 12.4907C36.3617 12.5229 37.5343 12.5353 38.6861 12.6896C39.8172 12.8409 40.9255 13.1579 42.0401 13.4024C42.0629 13.3537 42.0929 13.3226 42.0898 13.2936C41.9014 11.3554 41.7224 9.4161 41.5154 7.47995C41.4275 6.65846 41.4357 5.77792 41.1242 5.04034C40.4578 3.45641 39.2811 2.25991 37.7236 1.49954C35.4738 0.401458 33.0501 0.274038 30.642 0.551667C28.2203 0.830332 25.8174 1.31204 23.4289 1.81239C21.6623 2.18222 19.9341 2.73437 18.1851 3.18914C16.8025 3.54757 15.4427 3.90082 14.2464 4.77618C13.2912 5.47543 12.5668 6.3684 12.1559 7.39604C11.623 8.72928 11.3632 10.1744 11.0352 11.5822C10.9741 11.8433 11.0486 12.2711 11.2297 12.4275C11.6468 12.7901 12.1373 13.1081 12.6506 13.3122C13.7455 13.7473 15.0143 13.8001 15.8204 14.8392C15.8815 14.9179 15.9767 14.9759 16.0647 15.0288C18.0175 16.1963 20.1059 17.0613 22.4002 16.94C25.0588 16.8002 27.7226 16.535 30.3532 16.1268C32.8494 15.7394 35.3569 15.5592 37.8602 15.5623C39.8244 15.5643 41.798 15.9062 43.7487 16.2139C45.0899 16.4252 46.3887 16.8655 47.5343 17.6486C47.6636 17.7377 47.7723 17.8579 47.8903 17.9635L47.7951 18.1438C45.391 16.7857 42.8111 16.1445 40.1152 16.0968L40.1142 16.0947ZM42.7428 54.0242C42.1829 54.0242 41.652 54.0511 41.1242 54.0169C40.4743 53.9755 39.9114 53.7818 39.6878 53.0535C39.6506 52.9323 39.3877 52.808 39.2294 52.809C38.5339 52.8122 37.9565 52.5501 37.4422 52.1129C37.0365 51.769 36.6536 51.396 36.2355 51.0687C35.3517 50.3757 34.6169 49.6132 34.679 48.3711C34.6883 48.1898 34.6293 47.9827 34.5372 47.8262C34.4576 47.6916 34.2951 47.5403 34.1512 47.5206C33.0884 47.3735 32.7221 47.0472 32.4965 46.0165C32.3909 45.5327 32.0742 45.2343 31.593 45.1297C31.0145 45.0044 30.5861 45.2965 30.228 45.6912C29.9062 46.0476 30.0376 46.4464 30.257 46.7934C30.4484 47.0959 30.6844 47.3746 30.9297 47.6367C31.9262 48.7037 32.7914 49.8194 32.5223 51.4188C32.5058 51.5193 32.5213 51.626 32.5285 51.7286C32.5958 52.6702 32.8607 53.4855 33.8387 53.8771C34.0426 53.9589 34.2247 54.1019 34.4068 54.2303C35.659 55.113 36.8709 55.9956 38.5288 56.0608C41.0787 56.1623 43.6152 56.6192 46.1548 55.8588C47.2652 55.5263 48.2742 55.0529 49.1818 54.3661C49.395 54.2044 49.5595 53.8077 49.5337 53.5383C49.4933 53.1053 49.3132 52.6723 49.127 52.2683C48.3363 50.5507 47.3997 48.9336 46.2055 47.4429C45.1686 46.1491 43.9981 45.0862 42.5369 44.3341C41.887 43.9995 41.3488 43.5945 40.9214 42.9553C40.583 42.4487 39.99 42.1038 39.484 41.7215C39.3556 41.6252 39.098 41.592 38.9479 41.6511C38.2069 41.9453 37.4235 42.1918 36.7664 42.6238C35.9519 43.1594 35.2461 43.8617 34.4803 44.5019C34.737 44.6946 34.9139 44.8034 35.063 44.9422C35.7253 45.5596 35.6725 46.1946 34.9036 46.6774C34.7887 46.7489 34.5983 46.6991 34.4431 46.7054C34.4938 46.5738 34.5114 46.4101 34.6004 46.3148C35.1582 45.7171 35.1302 45.5099 34.4079 45.0862C34.0126 44.8542 33.3968 45.0603 33.1433 45.5089C32.868 45.9968 32.9953 46.6007 33.4713 46.7955C34.2144 47.1001 34.9936 47.1736 35.7077 46.7354C36.2779 46.3853 36.8191 45.9781 37.3304 45.5472C38.2628 44.762 39.5916 44.7071 40.5602 45.4436C40.7848 45.6145 40.851 45.7368 40.6275 45.975C40.4992 46.1128 40.4661 46.3407 40.3905 46.5272C40.9421 46.2475 41.3861 45.9004 41.8518 45.5855C41.9646 45.5089 42.1477 45.5379 42.2999 45.5182C42.2492 45.6611 42.2419 45.859 42.1405 45.9398C41.058 46.8152 40.0086 47.7537 38.6995 48.2841C37.8251 48.6384 37.3987 49.3739 36.962 50.1156C36.8947 50.2306 36.8937 50.4181 36.9299 50.5549C37.1669 51.4541 38.2866 52.289 39.2118 52.2983C39.5471 52.3014 39.7282 52.1761 39.8907 51.8736C40.2249 51.2552 40.5706 50.6295 41.0104 50.0866C41.3498 49.6681 41.8342 49.3667 42.2688 49.031C42.3382 48.9772 42.4851 49.0227 42.5958 49.0227C42.5834 49.147 42.5989 49.2838 42.5503 49.3915C42.5131 49.4744 42.4003 49.5283 42.3144 49.5842C41.2557 50.2752 40.6648 51.3184 40.2032 52.4434C40.0149 52.9044 40.3077 53.3415 40.8024 53.4151C41.2091 53.4752 41.622 53.5238 42.0318 53.5156C42.2336 53.5114 42.4872 53.4202 42.6238 53.2783C43.4093 52.4599 44.1595 51.6094 44.9398 50.7859C45.0392 50.6813 45.242 50.674 45.3973 50.6222C45.361 50.788 45.3776 51.0034 45.2782 51.1122C44.6728 51.77 44.0209 52.3854 43.431 53.0556C43.284 53.2224 43.2281 53.5549 43.2727 53.7828C43.314 53.989 43.5221 54.2728 43.7052 54.3174C44.2175 54.4417 44.7349 54.4075 45.1137 53.9299C45.4014 53.5663 45.7077 53.2182 46.0089 52.865C46.2873 52.5376 46.5512 52.1937 46.8616 51.8985C46.962 51.8032 47.1897 51.8425 47.3594 51.8197C47.3149 51.9513 47.3025 52.1098 47.2186 52.2092C46.6474 52.8961 46.0782 53.586 45.4749 54.2438C44.5901 55.2083 43.3834 55.0788 42.7459 54.0221L42.7428 54.0242ZM44.3696 30.9986C44.1037 31.6482 43.8998 32.3091 43.5748 32.9027C42.8649 34.1976 41.9387 35.2666 40.3419 35.4448C39.454 35.5432 38.5588 35.7111 37.674 35.6738C34.9936 35.5598 32.3164 35.3702 29.6392 35.1921C26.5169 34.9849 23.5044 34.1364 20.4474 33.5543C18.8992 33.259 17.4017 32.6986 15.8753 32.2842C15.1736 32.0936 14.7856 32.3868 14.8456 33.1192C14.8746 33.4703 15.0732 33.9272 15.3475 34.1157C16.2634 34.7456 17.2372 35.2957 18.21 35.8395C19.2459 36.4186 20.2942 36.979 21.3581 37.5022C22.4074 38.0181 23.4465 38.6137 24.5589 38.9266C25.9902 39.3285 27.4825 39.63 28.9634 39.7118C31.3333 39.8423 33.7156 39.7595 36.0927 39.7615C37.1058 39.7615 38.1231 39.6942 39.1321 39.7564C40.2291 39.8237 41.2153 39.5834 41.9894 38.824C42.5586 38.2657 43.0377 37.6006 43.4745 36.9283C43.7311 36.5336 43.64 36.0705 43.2406 35.6903C42.8401 36.0146 42.4323 36.3036 42.0743 36.6444C41.5858 37.1096 41.0259 37.3499 40.3564 37.3623C38.7244 37.3924 37.0924 37.4317 35.4604 37.4576C33.0077 37.496 30.5809 37.3281 28.1914 36.6931C27.4214 36.488 26.5842 36.4341 25.7842 36.4642C24.3075 36.5191 22.9187 36.1866 21.5412 35.7359C20.5923 35.4251 19.664 35.0429 18.6995 34.7974C17.9502 34.6068 17.3355 34.239 16.7673 33.7583C16.6556 33.663 16.6163 33.4817 16.5438 33.3398C16.7084 33.3636 16.9164 33.3305 17.0312 33.4196C17.6542 33.9013 18.3228 34.2659 19.1041 34.4182C19.4228 34.4804 19.7323 34.5912 20.0417 34.6938C21.0373 35.0232 22.0204 35.3982 23.0284 35.681C24.2133 36.0135 25.4407 36.0353 26.667 36.0229C27.0592 36.0187 27.4607 36.0695 27.8436 36.1575C30.08 36.6693 32.3257 37.0391 34.6366 36.9635C36.4249 36.9055 38.2152 36.9407 40.0055 36.9283C40.7382 36.9231 41.3747 36.7169 41.8994 36.1482C42.6786 35.305 43.5127 34.5135 44.3148 33.69C45.2182 32.7618 45.2234 32.0128 44.3696 31.0007V30.9986ZM45.6684 15.6482C45.6839 15.6016 45.6994 15.554 45.715 15.5074C45.478 15.3893 45.2482 15.2515 45.003 15.1572C44.1999 14.8475 43.3482 14.6341 42.5938 14.2352C41.4896 13.651 40.2891 13.451 39.1124 13.1392C38.0351 12.8533 36.9433 12.7632 35.835 12.8253C35.3879 12.8502 34.9388 12.9082 34.4938 12.8813C32.7852 12.7777 31.0963 12.8979 29.3929 13.0791C26.8998 13.3443 24.4844 13.9597 22.039 14.4435C21.3653 14.5771 20.6895 14.7263 20.0075 14.7884C19.3607 14.8475 18.7036 14.8009 18.0516 14.8009C18.271 14.9935 18.4977 15.1168 18.7388 15.1935C20.4774 15.7446 22.2553 15.8451 24.0529 15.5964C26.1485 15.3064 28.2359 14.9335 30.3377 14.7056C32.9394 14.4238 35.5535 14.2787 38.1748 14.4196C40.2974 14.5336 42.3806 14.8775 44.4359 15.4121C44.8395 15.5167 45.2565 15.5716 45.6674 15.6503L45.6684 15.6482ZM28.3311 21.897C28.3373 21.8317 28.3435 21.7664 28.3487 21.7012C27.7992 21.3531 27.2445 21.0123 26.7022 20.6538C25.9064 20.1286 25.0557 19.793 24.086 19.8417C23.314 19.88 22.5316 19.8614 21.772 19.9815C20.8437 20.1286 19.9206 20.3514 19.0192 20.6207C18.1603 20.8786 17.5632 21.494 17.0913 22.3735C17.38 22.4367 17.6294 22.5631 17.8529 22.5268C18.6115 22.4046 19.3545 22.1477 20.1152 22.0855C21.533 21.9695 22.958 21.9332 24.3809 21.9021C25.6963 21.8742 27.0126 21.8959 28.329 21.8959L28.3311 21.897ZM27.0944 22.3911C27.8561 23.4809 27.8043 24.5821 26.9619 26.3152C28.5846 26.7648 30.1018 26.3452 31.6127 25.6615C31.6127 25.6512 31.6375 25.5579 31.6085 25.4854C31.326 24.7654 31.088 24.0206 30.732 23.339C30.4091 22.7205 29.9165 22.2222 29.1176 22.2626C28.4687 22.2958 27.8198 22.3434 27.0934 22.3901L27.0944 22.3911ZM32.8276 23.3089C33.3999 21.092 30.2798 17.9004 27.1368 18.7902C27.3521 18.8793 27.5083 18.9249 27.646 19.0047C28.2638 19.3631 28.8982 19.6977 29.4808 20.1069C29.8555 20.37 30.1463 20.7502 30.4805 21.0703C31.2598 21.8172 32.0432 22.561 32.8266 23.3089H32.8276ZM43.5076 23.5938C43.5376 23.5576 43.5676 23.5213 43.5986 23.4861C43.5645 23.3939 43.549 23.2892 43.4931 23.2126C43.1402 22.7236 42.8028 22.2212 42.4106 21.7654C42.2326 21.5582 41.9635 21.3749 41.7017 21.3044C40.5188 20.9822 39.3091 21.0185 38.1179 21.2309C37.7381 21.2982 37.4007 21.6038 37.0437 21.8006C37.2186 21.9602 37.3314 22.0006 37.4463 22.0078C38.2535 22.0534 39.07 22.0347 39.8669 22.1508C40.464 22.2378 41.0528 22.4553 41.6158 22.6843C42.2626 22.9474 42.8773 23.2882 43.5065 23.5959L43.5076 23.5938ZM40.3729 26.2427C40.9173 26.0552 41.5082 25.9454 41.9925 25.6574C42.4365 25.3932 42.7728 24.9426 43.1464 24.5645C43.5003 24.2071 43.4589 24.089 42.9984 23.8766C42.3909 23.5959 41.8 23.2799 41.1946 22.9971C40.8842 22.8521 40.5551 22.7464 40.1256 22.5807C41.059 24.0558 41.0818 24.7375 40.3729 26.2427ZM35.2772 49.2558C36.6132 47.9909 38.0124 46.9581 39.0359 45.4622C38.2711 45.2996 37.8934 45.7855 37.437 46.1014C36.6681 46.6349 35.8919 47.1581 35.0733 47.7154C35.1219 48.0873 35.1892 48.5928 35.2772 49.2558ZM22.2563 1.70673C21.652 1.1639 19.9413 1.19912 18.7367 1.67358C17.4131 2.19568 16.9278 2.57483 16.8739 3.16946C18.6488 2.68671 20.408 2.20915 22.2563 1.70673ZM36.3535 50.5352C36.3886 50.4109 36.4073 50.3373 36.4311 50.2648C36.7353 49.3221 37.2217 48.4582 38.1303 48.0438C39.0007 47.647 39.4405 46.9167 39.9352 46.2081C40.018 46.089 39.9714 45.7596 39.8627 45.6529C39.633 45.4281 39.4953 45.6663 39.3494 45.8518C39.0431 46.2413 38.7368 46.637 38.3849 46.9851C37.4597 47.8998 36.5108 48.7907 35.5597 49.7033C35.8008 49.9561 36.0564 50.2234 36.3535 50.5362V50.5352ZM20.8789 23.945C21.1532 23.485 21.4647 22.965 21.8134 22.3807C20.674 22.5196 19.5677 22.6542 18.4614 22.7889C18.4645 22.8283 18.4676 22.8676 18.4708 22.907C19.2842 23.2571 20.0965 23.6083 20.8789 23.945ZM25.4903 24.8773C26.0906 24.8856 26.4766 24.55 26.4776 24.0196C26.4786 23.6611 26.1692 23.3887 25.7584 23.3835C25.2668 23.3773 24.7349 23.8207 24.7783 24.2433C24.8197 24.6422 25.035 24.9115 25.4903 24.8763V24.8773ZM35.0878 25.9816C35.1975 25.1249 35.3041 24.2848 35.4221 23.3669C35.0267 23.8787 34.6159 24.3376 34.2899 24.8514C33.9029 25.4606 34.0167 25.6802 34.708 25.876C34.8674 25.9215 35.0278 25.9651 35.0878 25.9816ZM39.8793 24.436C39.8876 23.9616 39.692 23.7865 39.1807 23.7772C38.7513 23.7689 38.6654 24.0807 38.6488 24.3863C38.6292 24.7654 38.7865 25.0441 39.2418 25.0462C39.6671 25.0483 39.8731 24.8535 39.8793 24.436ZM23.5582 23.1618C23.284 22.9733 23.1236 22.7754 22.9839 22.7889C22.8379 22.8034 22.7127 23.0209 22.5782 23.1504C22.7075 23.2768 22.8286 23.4913 22.9683 23.5047C23.1132 23.5182 23.2767 23.3369 23.5592 23.1618H23.5582ZM23.7072 24.494C23.4734 24.3117 23.3202 24.1242 23.2498 24.1511C23.0853 24.2143 22.9621 24.3822 22.8214 24.5075C22.9414 24.6225 23.0584 24.8235 23.1815 24.8276C23.3202 24.8328 23.464 24.6577 23.7072 24.493V24.494ZM36.9081 23.0251C36.7436 23.2737 36.5718 23.4198 36.578 23.5596C36.5832 23.6902 36.7747 23.8134 36.8854 23.9408C37.0034 23.8134 37.1989 23.6974 37.2186 23.5576C37.2362 23.4291 37.0634 23.2747 36.9092 23.0261L36.9081 23.0251ZM36.9671 24.6328C36.814 24.8763 36.6722 25.0016 36.6805 25.1166C36.6888 25.2223 36.8574 25.3166 36.9558 25.416C37.0623 25.3103 37.229 25.2171 37.2559 25.0938C37.2766 24.9985 37.1213 24.8659 36.9671 24.6328ZM40.3502 46.724L40.3212 46.7054L40.3181 46.7354L40.3502 46.724Z" fill="#0A0805"/>
<path d="M41.6884 28.275C41.428 28.7777 40.9445 28.8376 40.4599 28.8882C40.307 28.9047 40.1386 28.8562 39.9991 28.9026C39.8647 28.947 39.7573 29.0751 39.6385 29.1659C39.7563 29.2423 39.8689 29.3765 39.9908 29.3858C40.8505 29.4519 41.6429 29.3177 42.1709 28.5279C42.2071 28.4742 42.2577 28.4298 42.299 28.3844C43.6949 29.3135 44.1248 30.6814 43.4087 32.1454C43.0647 32.8474 42.6276 33.5205 42.1368 34.1306C41.5262 34.8894 40.5942 35.0887 39.6839 35.1775C37.3499 35.4036 35.0179 35.2921 32.689 35.0329C31.5979 34.9111 30.4892 34.9328 29.4043 34.78C27.4866 34.5085 25.5783 34.1637 23.6699 33.8292C22.6397 33.6485 21.6055 33.4699 20.5929 33.2118C19.3623 32.898 18.1545 32.4964 16.9342 32.1433C16.5881 32.0432 16.2347 31.9626 15.8783 31.9079C14.7975 31.7417 14.0309 32.6007 14.3594 33.6537C14.4659 33.9933 14.7118 34.3258 14.9763 34.5735C15.995 35.5233 17.2587 36.0849 18.4893 36.6951C20.2447 37.5664 21.964 38.5234 23.7691 39.276C24.7279 39.6766 25.8335 39.7282 26.875 39.9275C27.2118 39.9915 27.5538 40.0235 27.8937 40.07C28.5498 40.1598 29.2039 40.2795 29.8631 40.3311C30.7362 40.3993 31.6144 40.4592 32.4885 40.4416C34.12 40.4096 35.7504 40.3105 37.3819 40.2589C37.7921 40.2455 38.2044 40.2971 38.6145 40.3311C39.9402 40.4385 41.1945 40.2816 42.2257 39.3308C42.6782 40.0947 42.1234 41.4575 41.0044 42.3897C40.7492 42.1791 40.4671 41.984 40.2305 41.7435C39.5765 41.0796 38.8005 41.061 38.0432 41.4224C37.2589 41.7971 36.4892 42.2369 35.798 42.7603C34.7358 43.5646 33.747 44.4638 32.7117 45.3362C32.5484 45.1968 32.4493 45.1101 32.349 45.0264C31.7529 44.534 30.8632 44.5743 30.1627 45.1245C29.4725 45.6675 29.3361 46.2416 29.7474 47.0241C29.8889 47.2936 30.0862 47.5362 30.2743 47.7788C30.7857 48.4416 31.3127 49.092 31.8128 49.764C31.9182 49.9055 31.9729 50.112 31.9802 50.2916C32.0019 50.8584 32.1351 51.4788 31.9533 51.9795C31.7518 52.536 31.353 53.1689 30.8601 53.4424C29.5758 54.1527 28.1748 54.5027 26.6549 54.4428C24.9573 54.3767 23.2525 54.4583 21.5518 54.5254C19.7529 54.5966 17.9561 54.8227 16.1604 54.8073C14.2106 54.7907 12.2444 54.7185 10.336 54.2343C9.09098 53.9184 7.82321 53.6324 6.64119 53.1482C5.34965 52.6196 4.04055 52.0735 2.97012 51.1082C1.63725 49.9065 1.0855 48.3218 0.66498 46.6545C0.279584 45.1276 0.589556 43.6245 0.77657 42.113C0.860262 41.4327 0.887126 40.7451 0.972884 40.0658C1.15887 38.606 1.35621 37.1473 1.56803 35.6906C1.71371 34.6912 1.8191 33.6785 2.06811 32.7029C2.62089 30.5369 3.41751 28.4587 4.48381 26.4838C5.38685 24.8103 6.1752 23.0738 7.11028 21.4179C8.04432 19.7629 9.05172 18.1462 10.1128 16.5698C10.6822 15.7232 11.4385 15.0026 12.0977 14.2159C12.3291 13.9393 12.5657 13.8784 12.9098 14.0074C13.5359 14.2428 14.2086 14.3749 14.8048 14.665C15.2222 14.8684 15.5239 15.2979 15.9175 15.5673C17.1957 16.4428 18.6298 16.9672 20.129 17.3069C21.7977 17.6858 23.4663 17.5289 25.1443 17.2852C26.6528 17.0664 28.1789 16.9714 29.6947 16.8021C30.0377 16.7639 30.2443 16.8733 30.4035 17.1686C30.6483 17.6218 30.9325 18.0533 31.1691 18.5107C31.3137 18.7904 31.4016 19.1002 31.5204 19.4099C31.4067 19.4285 31.3582 19.4491 31.3478 19.4367C30.4964 18.4436 29.3651 18.3155 28.1582 18.3744C27.5269 18.4054 26.8925 18.3672 26.2592 18.3754C24.1824 18.4033 22.1025 18.3826 20.0288 18.491C18.823 18.554 17.736 19.0423 16.9074 19.9901C16.5798 20.3648 16.1852 20.689 15.8989 21.0906C15.682 21.3951 15.5063 21.7771 15.4588 22.1436C15.3813 22.7424 15.8091 23.0067 16.4063 22.9489C16.7441 22.9158 17.1151 23.0624 17.4509 23.1843C18.1607 23.4413 18.8633 23.7201 19.5556 24.0195C19.8666 24.1537 20.1993 24.3065 20.4328 24.5398C21.1467 25.2521 21.9929 25.7198 22.9446 25.9924C24.1648 26.3413 25.385 26.7037 26.626 26.9576C28.0373 27.2467 29.4539 27.2859 30.8178 26.6397C31.1928 26.4621 31.6309 26.4156 32.0825 26.299C32.4823 26.5911 32.5061 26.777 32.0597 27.1094C31.2569 27.7051 30.422 28.084 29.3382 27.9136C28.1396 27.7257 26.9049 27.7887 25.695 27.6566C24.4727 27.5234 23.2473 27.3468 22.0518 27.0671C21.5507 26.9504 21.0992 26.5498 20.6683 26.2215C20.2199 25.8788 19.8273 25.4627 19.4016 25.088C19.3014 25.0002 19.1722 24.9197 19.0441 24.8949C18.947 24.8763 18.7889 24.9218 18.7393 24.9951C18.7011 25.0519 18.7558 25.2294 18.8251 25.2924C19.476 25.8778 20.1145 26.4807 20.8047 27.0175C21.5858 27.6256 22.5261 27.8579 23.4963 27.9415C25.3076 28.0974 27.1209 28.2316 28.9332 28.3782C29.3031 28.4081 29.6719 28.4577 30.1007 28.5041C29.24 29.6016 28.3174 30.5059 26.9793 30.8962C26.3873 31.0686 25.8211 31.3308 25.2352 31.527C24.8147 31.6674 24.3766 31.7582 23.952 31.8904C23.829 31.9286 23.7257 32.0339 23.6141 32.1092C23.736 32.198 23.8579 32.358 23.9809 32.3601C24.2506 32.3642 24.5368 32.3281 24.7909 32.2373C25.8252 31.8677 26.8884 31.5476 27.8658 31.0593C28.5705 30.7073 29.2049 30.1694 29.7856 29.6233C30.4179 29.0286 30.9025 28.2873 31.7467 27.9188C32.0814 27.7722 32.3728 27.4945 32.6394 27.2312C33.0496 26.8265 32.9504 26.2577 32.4906 25.8994C32.2953 25.7466 32.1258 25.5237 32.0215 25.2976C31.7497 24.705 31.5338 24.0866 31.2693 23.4888C30.9035 22.6609 30.2288 22.1509 29.4446 21.7431C28.5478 21.2764 27.6592 20.7912 26.7851 20.2822C25.9657 19.8053 25.1081 19.5059 24.1524 19.4966C22.492 19.4811 20.8595 19.6711 19.2693 20.1522C18.2692 20.4546 17.4364 21.0008 16.8681 21.9082C16.677 22.2149 16.4445 22.4967 15.8545 22.4327C15.9888 22.0724 16.0384 21.7059 16.2358 21.4571C16.6067 20.9884 17.0779 20.6002 17.4819 20.1553C18.2857 19.2684 19.3541 19.0351 20.4658 18.9783C21.8214 18.9081 23.1843 18.8493 24.5388 18.9019C26.4493 18.9763 28.1541 19.6102 29.5262 21.0173C30.1606 21.6687 30.8353 22.283 31.5183 22.8849C32.1517 23.4444 32.5381 24.1186 32.6766 24.9507C32.6983 25.0849 32.8398 25.1985 32.9266 25.3213C32.9896 25.1799 33.1105 25.0353 33.1033 24.897C33.0878 24.5749 33.0103 24.2559 32.9824 24.0824C33.125 23.7521 33.2893 23.5373 33.2996 23.3154C33.3203 22.8735 33.2583 22.4265 33.2273 21.9826C33.1735 21.2011 32.5288 20.7902 32.1227 20.2296C32.0535 20.1346 31.913 20.0179 31.9316 19.9426C32.2023 18.8431 31.4542 18.0987 31.0131 17.2481C30.9345 17.0963 30.8508 16.9476 30.7062 16.6792C31.4005 16.5811 32.0267 16.448 32.659 16.4118C34.4083 16.3107 36.1606 16.2704 37.9099 16.163C38.6931 16.1145 39.3719 16.2611 39.9288 16.8361C40.4671 17.3916 41.0075 17.9459 41.5468 18.5014L41.4435 18.6438C41.366 18.6573 41.2896 18.682 41.2121 18.6841C40.0838 18.7171 38.9514 18.7058 37.8272 18.7977C37.3488 18.8369 36.8797 19.0692 36.4231 19.2571C36.3228 19.2984 36.297 19.5193 36.2371 19.6576C36.3755 19.6659 36.5367 19.7237 36.6483 19.6731C37.9264 19.0878 39.2737 19.1053 40.6355 19.158C41.4446 19.19 42.2133 19.2808 42.8611 19.8197C42.9004 19.8528 42.9427 19.8837 42.9748 19.923C42.9934 19.9457 42.9944 19.9839 43.0171 20.0634C41.4053 19.6391 39.7821 19.6391 38.163 19.7258C36.7268 19.8032 35.6037 20.5476 34.679 21.6058C34.6035 21.6925 34.6366 21.8731 34.619 22.0104C34.7792 21.9599 34.992 21.9578 35.0923 21.8504C35.8661 21.0204 36.7837 20.3793 37.9057 20.2575C38.9576 20.1439 40.0363 20.2131 41.0984 20.2822C41.7029 20.3215 42.3021 20.5032 42.8942 20.656C43.4098 20.7891 43.5648 21.1959 43.5648 21.6832C43.5648 21.9857 43.5648 22.2882 43.4707 22.6227C43.2507 22.3047 43.0626 21.9568 42.8022 21.676C42.5656 21.422 42.2804 21.1515 41.9643 21.0441C40.6448 20.5981 39.2593 20.5878 37.945 20.9233C37.2021 21.1123 36.4799 21.6429 35.9116 22.1901C35.1511 22.922 34.5436 23.814 33.8865 24.6492C33.7532 24.8185 33.6664 25.0395 33.6065 25.2501C33.4081 25.9469 33.6065 26.3299 34.3122 26.4611C35.1522 26.618 36.0056 26.7708 36.857 26.7956C38.1734 26.8337 39.4949 26.7863 40.8122 26.7264C41.8031 26.682 42.547 26.1338 43.168 25.3998C43.2661 25.2831 43.3695 25.1706 43.5276 24.992C43.5369 25.1458 43.5534 25.2336 43.5462 25.3192C43.4222 26.6314 42.1658 27.765 40.8587 27.7474C40.773 27.7464 40.681 27.7257 40.6014 27.7484C40.3948 27.8083 40.1944 27.8888 39.9908 27.9601C40.1933 28.0509 40.3886 28.1924 40.6004 28.2233C40.9548 28.2739 41.3206 28.2543 41.6812 28.2636L41.6894 28.2719L41.6884 28.275ZM36.701 28.7075C37.0058 28.692 37.1536 28.6889 37.3003 28.6755C37.6919 28.6394 38.0876 28.6229 38.4709 28.5444C38.5897 28.5207 38.6745 28.3245 38.7747 28.2079C38.6373 28.1593 38.4988 28.0674 38.3635 28.0705C38.0576 28.0778 37.7363 28.212 37.4501 28.1542C36.5326 27.9673 35.6285 27.7082 34.7151 27.4986C34.5798 27.4676 34.4176 27.5502 34.2677 27.5812C34.3421 27.702 34.3979 27.8414 34.495 27.9374C34.5746 28.0158 34.7069 28.0406 34.8122 28.0964C35.5572 28.4897 36.2898 28.8892 36.8012 29.6026C37.1897 30.1436 37.6206 30.6536 38.0514 31.1625C38.1331 31.2585 38.3004 31.2813 38.4275 31.338C38.443 31.1873 38.5123 31.0159 38.4627 30.891C38.3831 30.6887 38.2415 30.5039 38.099 30.3346C37.6722 29.8246 37.2321 29.3259 36.7 28.7096L36.701 28.7075ZM16.5643 30.8477C16.5643 30.8549 16.5643 30.8631 16.5643 30.8704C16.3928 30.8704 16.2203 30.8549 16.0508 30.8724C14.9969 30.986 14.0329 31.2957 13.3944 32.2135C13.2983 32.3518 13.3489 32.5924 13.3324 32.7854C13.4905 32.6936 13.6992 32.6378 13.7963 32.5015C14.1631 31.9853 14.6415 31.6457 15.2604 31.5487C15.8659 31.4526 16.4807 31.4248 17.0882 31.3411C17.2287 31.3215 17.3558 31.1997 17.4891 31.1243C17.3527 31.0325 17.2266 30.9024 17.0758 30.858C16.9177 30.8115 16.7359 30.8477 16.5654 30.8477H16.5643ZM16.2833 29.1277C15.746 29.2733 15.2346 29.393 14.7417 29.5623C14.6446 29.5954 14.6157 29.8256 14.5557 29.9639C14.689 29.9794 14.8285 30.0279 14.9556 30.0052C15.4051 29.9216 15.8555 29.8318 16.2936 29.7069C16.4703 29.6563 16.6181 29.5087 16.7793 29.4054C16.6222 29.3177 16.4641 29.2299 16.2833 29.1287V29.1277Z" fill="#72697C"/>
<path d="M40.1554 16.0361C42.852 16.0834 45.4307 16.7189 47.8344 18.068L47.9296 17.889C47.8117 17.7842 47.703 17.6649 47.5737 17.5764C46.4282 16.7991 45.1285 16.362 43.7885 16.1523C41.838 15.8469 39.8647 15.5075 37.9007 15.5055C35.3976 15.5024 32.8903 15.6803 30.3945 16.0659C27.7641 16.4721 25.1006 16.7343 22.4423 16.8731C20.1482 16.9934 18.0601 16.1348 16.1075 14.9759C16.0195 14.9235 15.9243 14.8659 15.8633 14.7877C15.0572 13.7574 13.7886 13.7039 12.6938 13.272C12.1805 13.0695 11.689 12.7548 11.2731 12.3939C11.093 12.2376 11.0175 11.8139 11.0785 11.5548C11.4065 10.1563 11.6663 8.72187 12.1992 7.3995C12.6089 6.38047 13.3343 5.49408 14.2894 4.79896C15.4845 3.93006 16.8453 3.58044 18.2277 3.22363C19.9775 2.77324 21.7045 2.22516 23.4709 1.85704C25.8591 1.36037 28.2618 0.882219 30.6832 0.60561C33.0911 0.33003 35.5145 0.456509 37.7641 1.54649C39.3225 2.30125 40.4979 3.48995 41.1643 5.06117C41.4748 5.79331 41.4665 6.66736 41.5555 7.48279C41.7635 9.40466 41.9425 11.3296 42.1298 13.2535C42.1329 13.2823 42.1029 13.3132 42.0801 13.3615C40.9657 13.1199 39.8574 12.8042 38.7264 12.654C37.5747 12.5008 36.4023 12.4885 35.2372 12.4566C34.1538 12.4268 33.0631 12.3877 31.986 12.472C30.3428 12.6006 28.6964 12.7692 27.0708 13.0355C24.7467 13.417 22.4444 13.925 20.1255 14.3332C19.1549 14.5039 18.1698 14.4751 17.2136 14.1574C17.045 14.1008 16.8608 14.0895 16.6838 14.0577C16.6476 14.107 16.6114 14.1564 16.5762 14.2057C16.7325 14.3703 16.8629 14.5749 17.0491 14.6931C18.1553 15.3996 19.3867 15.7728 20.6811 15.9353C22.4961 16.1626 24.2811 15.8787 26.0681 15.6021C27.0005 15.4582 27.9524 15.4273 28.8806 15.2628C32.3792 14.6448 35.9046 14.5214 39.428 14.8443C41.2523 15.0119 43.0455 15.5034 44.8605 15.7955C45.8704 15.9579 46.8731 16.0947 47.7475 16.6695C48.178 16.9523 48.6188 17.2227 49.0182 17.5446C49.2231 17.7101 49.4311 17.9559 49.4859 18.1996C49.5604 18.5266 49.488 18.8855 49.4787 19.231C49.1579 19.2022 48.8133 19.2392 48.5205 19.1333C46.9052 18.5471 45.322 17.8685 43.6871 17.3461C43.0414 17.1394 42.2902 17.2186 41.5896 17.2433C41.3133 17.2525 41.1529 17.2289 40.9863 17.0068C40.7339 16.6695 40.44 16.3641 40.1544 16.034L40.1554 16.0361Z" fill="#474152"/>
<path d="M42.6546 53.9465C43.2979 55.0201 44.5186 55.1516 45.413 54.1717C46.0229 53.5033 46.5982 52.8024 47.1756 52.1045C47.2593 52.0035 47.2719 51.8424 47.3179 51.7088C47.1463 51.7319 46.9162 51.6919 46.8147 51.7888C46.5009 52.0877 46.2352 52.4382 45.9528 52.7708C45.6484 53.1297 45.3387 53.4834 45.0479 53.8528C44.6651 54.338 44.1421 54.3728 43.6243 54.2464C43.4381 54.2012 43.2278 53.9128 43.187 53.7033C43.141 53.4718 43.1975 53.135 43.3471 52.9645C43.9433 52.2835 44.6023 51.6572 45.2143 50.9899C45.3147 50.8804 45.2969 50.6604 45.3346 50.492C45.1777 50.5447 44.9737 50.552 44.8722 50.6583C44.0835 51.494 43.324 52.3592 42.5311 53.1907C42.3931 53.3349 42.1368 53.4276 41.9328 53.4318C41.5196 53.4402 41.1012 53.3918 40.6901 53.3297C40.1901 53.2549 39.894 52.8108 40.0844 52.3424C40.5499 51.1993 41.1483 50.1394 42.2184 49.4374C42.3052 49.3805 42.4192 49.3258 42.4569 49.2416C42.506 49.1321 42.4903 48.9932 42.5029 48.8669C42.391 48.8669 42.2435 48.8206 42.1723 48.8753C41.733 49.2153 41.2424 49.5226 40.9003 49.9479C40.4558 50.4983 40.1064 51.1351 39.7685 51.7635C39.6032 52.0708 39.4202 52.1982 39.0823 52.195C38.1471 52.1856 37.0153 51.3372 36.7758 50.4236C36.7391 50.2857 36.7402 50.0942 36.8082 49.9773C37.2496 49.2237 37.6806 48.4764 38.5645 48.1164C39.8878 47.5775 40.9485 46.6239 42.0426 45.7345C42.1441 45.6514 42.1525 45.4514 42.2037 45.3061C42.051 45.3261 41.8658 45.2977 41.7518 45.3746C41.2811 45.6945 40.8323 46.0461 40.2748 46.3313C40.3512 46.1408 40.3836 45.9093 40.5144 45.7703C40.7403 45.5282 40.6734 45.404 40.4464 45.2304C39.4672 44.482 38.1241 44.5378 37.1816 45.3356C36.6638 45.7735 36.1167 46.1882 35.5414 46.5429C34.8196 46.9881 34.032 46.9134 33.2809 46.6039C32.7997 46.4061 32.6721 45.7924 32.9493 45.2967C33.2045 44.8409 33.828 44.6315 34.2276 44.8672C34.9588 45.2988 34.986 45.5082 34.4221 46.1156C34.3322 46.2124 34.3144 46.3787 34.2631 46.5124C34.42 46.5061 34.6136 46.5576 34.7286 46.4839C35.5058 45.9935 35.5602 45.3483 34.8897 44.7209C34.7391 44.5799 34.5602 44.4683 34.3008 44.2736C35.0749 43.6221 35.7883 42.9095 36.6115 42.3653C37.2758 41.9264 38.0676 41.6759 38.8166 41.377C38.9683 41.316 39.2288 41.3496 39.3585 41.4486C39.87 41.8359 40.4694 42.1864 40.8114 42.7022C41.2434 43.3516 41.7874 43.7631 42.4443 44.1031C43.9214 44.8672 45.1055 45.9472 46.1526 47.2618C47.3597 48.7764 48.3064 50.4194 49.1056 52.1645C49.2939 52.574 49.4759 53.015 49.5167 53.4549C49.5418 53.7275 49.3765 54.1317 49.161 54.2959C48.2436 54.9948 47.2237 55.4748 46.1013 55.8126C43.5343 56.5852 40.9704 56.121 38.393 56.0179C36.7182 55.9505 35.4922 55.0548 34.2265 54.158C34.0424 54.0275 33.8583 53.8823 33.6522 53.7991C32.6627 53.4013 32.3959 52.5729 32.3279 51.6161C32.3206 51.5109 32.3049 51.4025 32.3217 51.3014C32.5936 49.6763 31.7191 48.5427 30.7118 47.4586C30.4639 47.1923 30.2254 46.9081 30.0318 46.6018C29.8101 46.2503 29.6772 45.844 30.0026 45.4819C30.3645 45.0799 30.7976 44.783 31.3823 44.9114C31.8687 45.0178 32.1878 45.3209 32.2955 45.8124C32.5235 46.8608 32.8928 47.1913 33.9681 47.3407C34.1125 47.3607 34.2778 47.5144 34.3583 47.6512C34.4525 47.8102 34.511 48.0207 34.5016 48.2049C34.4389 49.4658 35.1816 50.2415 36.0749 50.9457C36.4975 51.2783 36.8845 51.6572 37.2946 52.0066C37.8145 52.4508 38.3982 52.7171 39.1011 52.7139C39.2612 52.7139 39.5269 52.8392 39.5645 52.9623C39.7905 53.7023 40.3595 53.8991 41.0165 53.9412C41.5499 53.9749 42.0876 53.9486 42.6525 53.9486L42.6546 53.9465Z" fill="#72697C"/>
<path d="M44.0873 30.7716C44.931 31.7673 44.9259 32.505 44.033 33.4201C43.2415 34.2302 42.4161 35.0106 41.646 35.8411C41.1265 36.4002 40.4985 36.6043 39.7744 36.6094C38.0061 36.6216 36.2358 36.5859 34.4685 36.644C32.1858 36.7185 29.9654 36.3543 27.7553 35.8503C27.3769 35.7636 26.9801 35.7136 26.5925 35.7177C25.3806 35.7299 24.1686 35.7085 22.9966 35.381C22.0004 35.1025 21.0288 34.7331 20.045 34.4087C19.7392 34.3077 19.4324 34.1985 19.1184 34.1373C18.3462 33.9874 17.6856 33.6282 17.0699 33.1538C16.9563 33.0661 16.7508 33.0987 16.5882 33.0753C16.6598 33.215 16.6976 33.3946 16.8091 33.4874C17.3706 33.9608 17.9791 34.323 18.7185 34.5107C19.6717 34.7515 20.5901 35.129 21.5269 35.4351C22.8882 35.8789 24.2617 36.2064 25.7201 36.1523C26.5107 36.1227 27.3381 36.1758 28.099 36.3778C30.4604 37.0032 32.8577 37.1695 35.2826 37.1307C36.8954 37.1052 38.5083 37.0664 40.1211 37.0368C40.7828 37.0246 41.3361 36.7879 41.8188 36.3298C42.1727 35.9942 42.5767 35.7085 42.9715 35.3902C43.3662 35.7646 43.4562 36.2206 43.2026 36.6094C42.771 37.2705 42.2975 37.9265 41.735 38.4764C40.97 39.2242 39.9953 39.4609 38.9112 39.3946C37.9141 39.3334 36.9087 39.4007 35.9075 39.3997C33.5583 39.3977 31.204 39.4793 28.8619 39.3507C27.3984 39.2701 25.9236 38.9732 24.5092 38.5774C23.4087 38.2693 22.3829 37.6826 21.3459 37.1746C20.2935 36.6593 19.2585 36.1074 18.2348 35.5371C17.2734 35.0025 16.312 34.4607 15.4059 33.8394C15.1359 33.6537 14.9385 33.2038 14.9099 32.858C14.8506 32.1366 15.2341 31.8489 15.9275 32.0356C17.437 32.4437 18.9159 32.9957 20.4459 33.2865C23.466 33.8598 26.4432 34.6954 29.5298 34.8994C32.1756 35.0739 34.8213 35.2616 37.4702 35.3739C38.3446 35.4106 39.2293 35.2453 40.1068 35.1484C41.6838 34.9739 42.6002 33.92 43.3018 32.6447C43.624 32.0601 43.8244 31.4092 44.0873 30.7695V30.7716Z" fill="#484153"/>
<path d="M45.6251 15.7918C45.2109 15.715 44.7916 15.6607 44.3837 15.5563C42.312 15.0279 40.2121 14.6879 38.0726 14.5753C35.4293 14.436 32.7953 14.5794 30.1728 14.8579C28.0531 15.0832 25.9501 15.4518 23.8377 15.7385C22.0258 15.9843 20.2336 15.8849 18.4811 15.3402C18.237 15.2644 18.0086 15.1426 17.7885 14.9521C18.4456 14.9521 19.108 14.9982 19.76 14.9398C20.4475 14.8784 21.1286 14.7309 21.8077 14.5988C24.2727 14.1207 26.7085 13.5124 29.2204 13.2503C30.9374 13.0711 32.6399 12.9523 34.3621 13.0547C34.8096 13.0813 35.2634 13.024 35.7141 12.9994C36.8313 12.938 37.9318 13.0271 39.0177 13.3097C40.2038 13.6189 41.4139 13.8155 42.5269 14.393C43.2874 14.7873 44.1459 14.9992 44.9554 15.3044C45.2036 15.3986 45.4342 15.5337 45.6731 15.6505C45.6574 15.6965 45.6418 15.7436 45.6261 15.7897L45.6251 15.7918Z" fill="#474152"/>
<path d="M28.3452 21.9147C26.996 21.9147 25.6468 21.8903 24.2986 21.9214C22.8401 21.9546 21.3795 21.9934 19.9263 22.1175C19.1467 22.184 18.3851 22.4589 17.6076 22.5897C17.3785 22.6285 17.1218 22.4932 16.8269 22.4256C17.3095 21.4836 17.9216 20.8252 18.803 20.5504C19.7269 20.2611 20.672 20.0239 21.6245 19.8665C22.4031 19.738 23.205 19.7579 23.9963 19.7169C24.9912 19.6648 25.8631 20.0239 26.6778 20.5858C27.2336 20.9693 27.8021 21.3339 28.3654 21.7063C28.359 21.7762 28.3526 21.846 28.3473 21.9158L28.3452 21.9147Z" fill="#72697C"/>
<path d="M27.0587 22.2478C27.8082 22.2003 28.4765 22.1516 29.147 22.1178C29.9701 22.0766 30.4783 22.5839 30.8125 23.2158C31.1808 23.9112 31.4264 24.671 31.7168 25.4055C31.7456 25.4795 31.721 25.5746 31.721 25.5852C30.1623 26.2827 28.5971 26.7107 26.9231 26.252C27.7921 24.484 27.8455 23.3606 27.0598 22.2489L27.0587 22.2478Z" fill="#F5F5F5"/>
<path d="M32.623 23.0769C31.8372 22.3851 31.0534 21.6962 30.2728 21.0034C29.9379 20.706 29.6456 20.3538 29.2713 20.1111C28.6876 19.7321 28.0511 19.4222 27.4332 19.0902C27.2963 19.0163 27.1387 18.9741 26.9231 18.8916C30.0716 18.0673 33.1964 21.0236 32.6241 23.0769H32.623Z" fill="#72697C"/>
<path d="M43.1814 23.5579C42.5815 23.2654 41.9953 22.9414 41.3786 22.6912C40.8409 22.4726 40.2804 22.2658 39.711 22.184C38.9513 22.0737 38.1727 22.0915 37.4031 22.0481C37.2935 22.0422 37.186 22.0028 37.0192 21.8512C37.3597 21.6641 37.6813 21.3735 38.0435 21.3095C39.1792 21.1086 40.3327 21.0731 41.4605 21.3794C41.7092 21.4474 41.9667 21.6207 42.1365 21.8177C42.5094 22.251 42.8321 22.7287 43.1686 23.1935C43.2209 23.2664 43.2367 23.3659 43.2692 23.4535C43.2406 23.488 43.212 23.5224 43.1824 23.5559L43.1814 23.5579Z" fill="#72697C"/>
<path d="M40.1595 25.9618C40.8922 24.5795 40.8687 23.9521 39.9039 22.5964C40.3478 22.7488 40.6879 22.8459 41.0088 22.9791C41.6357 23.239 42.2464 23.5304 42.8733 23.7874C43.3493 23.9826 43.391 24.0911 43.0262 24.4195C42.6401 24.767 42.2924 25.1812 41.8335 25.4239C41.3319 25.6886 40.7222 25.7895 40.1595 25.9618Z" fill="#F5F5F5"/>
<path d="M35.294 49.0388C35.2086 48.3713 35.1443 47.8631 35.0961 47.4903C35.8897 46.93 36.644 46.4041 37.3904 45.8678C37.8333 45.5491 38.2 45.0618 38.9423 45.2253C37.9499 46.729 36.5908 47.7673 35.294 49.0388Z" fill="#72697C"/>
<path d="M22.1154 1.85464C20.2993 2.37367 18.5707 2.86701 16.8269 3.3657C16.8788 2.75143 17.3567 2.35975 18.6572 1.82039C19.8407 1.32919 21.5226 1.2928 22.1154 1.85464Z" fill="#474152"/>
<path d="M20.6964 24.0386C19.9109 23.6246 19.0952 23.1929 18.2786 22.7624C18.2755 22.7141 18.2723 22.6657 18.2692 22.6173C19.3799 22.4517 20.4917 22.2861 21.6346 22.1155C21.2845 22.8338 20.9717 23.4731 20.6964 24.0386Z" fill="#F5F5F5"/>
<path d="M25.3267 24.9963C24.8122 25.0415 24.5689 24.6953 24.5222 24.1826C24.4719 23.6392 25.0741 23.0692 25.6296 23.0772C26.095 23.0839 26.4435 23.4341 26.4423 23.8949C26.44 24.5768 26.005 25.0069 25.3267 24.9976V24.9963Z" fill="#F5F5F5"/>
<path d="M35.2204 25.9618C35.1564 25.9435 34.9853 25.8943 34.8153 25.8452C34.078 25.6292 33.9566 25.3869 34.3694 24.7149C34.7171 24.1492 35.1553 23.6429 35.577 23.0771C35.4522 24.0897 35.3374 25.0155 35.2204 25.9618Z" fill="#F5F5F5"/>
<path d="M39.9036 24.3068C39.8963 24.7812 39.6553 25.0025 39.1575 25.0002C38.6257 24.9966 38.4404 24.6811 38.4634 24.2503C38.4828 23.903 38.5833 23.5486 39.086 23.558C39.6843 23.5698 39.9133 23.7688 39.9036 24.3068Z" fill="#F5F5F5"/>
<path d="M23.5577 23.0973C23.2808 23.332 23.1215 23.5751 22.9785 23.557C22.8416 23.539 22.7229 23.2515 22.5961 23.082C22.728 22.9098 22.8517 22.6168 22.9937 22.5973C23.1307 22.5793 23.2879 22.8431 23.5567 23.0973H23.5577Z" fill="#F5F5F5"/>
<path d="M23.5577 24.2824C23.2948 24.399 23.1376 24.5222 22.987 24.5193C22.8522 24.5164 22.7253 24.3734 22.5961 24.2927C22.7478 24.2039 22.8826 24.0851 23.0612 24.0404C23.1376 24.0213 23.3049 24.1541 23.5577 24.2832V24.2824Z" fill="#F5F5F5"/>
<path d="M36.7866 23.0782C36.902 23.3393 37.0315 23.5014 37.0183 23.6362C37.0036 23.7842 36.8579 23.906 36.7687 24.0387C36.6866 23.906 36.5424 23.7755 36.5385 23.6384C36.5347 23.4916 36.6633 23.3382 36.7858 23.0771L36.7866 23.0782Z" fill="#F5F5F5"/>
<path d="M36.7773 24.5195C36.9057 24.8057 37.0349 24.9685 37.0177 25.0855C36.9953 25.2369 36.8566 25.3501 36.7679 25.4811C36.686 25.359 36.5456 25.2445 36.5387 25.1135C36.5318 24.9723 36.6499 24.8184 36.7773 24.5195Z" fill="#F5F5F5"/>
<path d="M36.7292 28.6218C37.2968 29.2381 37.7663 29.7378 38.2215 30.2467C38.3736 30.4161 38.5246 30.6008 38.6095 30.8032C38.6624 30.9281 38.5885 31.0995 38.572 31.2502C38.4364 31.1934 38.2579 31.1707 38.1708 31.0747C37.7112 30.5668 37.2516 30.0558 36.8372 29.5148C36.2916 28.8025 35.5102 28.4019 34.7155 28.0086C34.6031 27.9528 34.462 27.9291 34.3771 27.8496C34.2724 27.7525 34.2129 27.6142 34.1346 27.4934C34.2945 27.4635 34.4664 27.3799 34.6119 27.4108C35.5862 27.6204 36.5495 27.8795 37.5293 28.0664C37.8346 28.1242 38.1774 27.991 38.5037 27.9828C38.6492 27.9797 38.7957 28.0715 38.9423 28.1201C38.8354 28.2367 38.745 28.4318 38.6183 28.4566C38.2094 28.5351 37.7873 28.5516 37.3695 28.5877C37.213 28.6011 37.0554 28.6042 36.7303 28.6197L36.7292 28.6218Z" fill="#0A0805"/>
<path d="M16.453 30.7827C16.6117 30.7827 16.78 30.7471 16.9253 30.7929C17.0649 30.8367 17.1815 30.9649 17.3077 31.0554C17.1844 31.1297 17.0677 31.2498 16.9368 31.2691C16.3746 31.3515 15.8058 31.379 15.2455 31.4736C14.6738 31.5703 14.2302 31.904 13.8908 32.4128C13.8019 32.5471 13.6078 32.601 13.4615 32.6926C13.4768 32.5023 13.43 32.2653 13.5189 32.1289C14.1097 31.2243 15.0017 30.9191 15.9769 30.8071C16.1337 30.7888 16.2933 30.8051 16.452 30.8051C16.452 30.798 16.452 30.7898 16.452 30.7827H16.453Z" fill="#0A0805"/>
<path d="M16.2908 28.8476C16.4862 28.9576 16.6572 29.0531 16.8269 29.1485C16.6527 29.2608 16.493 29.4225 16.3019 29.4764C15.8272 29.6123 15.3413 29.7111 14.8554 29.801C14.7191 29.8268 14.5683 29.774 14.4231 29.7561C14.4879 29.6045 14.5192 29.3552 14.6242 29.3192C15.157 29.1339 15.7099 29.0048 16.2908 28.8464V28.8476Z" fill="#0A0805"/>
</svg>
