<svg width="42" height="45" viewBox="0 0 42 45" fill="none" xmlns="http://www.w3.org/2000/svg">
<path d="M12.4556 4.6531C11.8916 4.5661 11.8676 4.5571 12.1346 4.5181C12.6446 4.4401 13.8446 4.5451 14.6726 4.7401C16.6046 5.1961 18.3626 6.3661 20.2406 8.4451L20.7386 8.9971L21.4526 8.8831C24.4586 8.4031 27.5126 8.7841 30.0716 9.9571C30.7766 10.2811 31.8866 10.9231 32.0216 11.0881C32.0696 11.1421 32.1506 11.4781 32.2016 11.8411C32.3936 13.0951 32.3006 14.0521 31.9136 14.7691C31.7036 15.1591 31.6916 15.2821 31.8326 15.6181C31.9 15.7565 32.0049 15.8732 32.1354 15.9548C32.2659 16.0365 32.4166 16.0799 32.5706 16.0801C33.2066 16.0801 33.8906 15.0601 34.2056 13.6381L34.3316 13.0711L34.5806 13.3531C35.9516 14.8951 37.0256 16.9951 37.2086 18.4891L37.2566 18.8791L37.0286 18.5251C36.6972 17.9829 36.2519 17.5192 35.7236 17.1661C34.8056 16.5631 33.8336 16.3561 31.2656 16.2211C28.9436 16.1011 27.6296 15.9031 26.3276 15.4801C24.1106 14.7601 22.9946 13.8061 20.3606 10.3741C19.1906 8.8471 18.4706 8.0041 17.7506 7.3261C16.1156 5.7811 14.5106 4.9711 12.4556 4.6561V4.6531Z" fill="white"/>
<path d="M32.5504 8.05796C32.6074 7.03796 32.7454 6.36296 33.0274 5.74796C33.0892 5.59253 33.1666 5.44377 33.2584 5.30396C33.2734 5.30396 33.2254 5.48396 33.1504 5.70296C32.9464 6.30296 32.9104 7.11896 33.0544 8.06996C33.2344 9.27596 33.3334 9.44996 34.6144 10.752C35.2174 11.364 35.9164 12.132 36.1714 12.465L36.6334 13.065L36.1714 12.636C35.6074 12.111 34.3114 11.085 34.0234 10.938C33.8314 10.842 33.8014 10.842 33.6844 10.959C33.5734 11.067 33.5524 11.229 33.5344 11.997C33.5134 13.194 33.3484 13.962 32.9524 14.727C32.7394 15.147 32.7064 15.057 32.8984 14.586C33.0424 14.238 33.0574 14.082 33.0574 12.924C33.0574 10.599 32.7754 10.038 31.1464 9.08396C30.6551 8.80015 30.1505 8.53986 29.6344 8.30395C29.3801 8.20174 29.1335 8.08143 28.8964 7.94395C28.9414 7.89896 30.5314 8.36096 31.1704 8.60396C32.1244 8.96996 32.2804 9.01495 32.3974 8.97295C32.4724 8.94295 32.5114 8.71796 32.5474 8.05796H32.5504ZM13.5514 12.039C12.4084 10.473 11.6974 8.06996 11.8534 6.27296L11.8984 5.71796L12.1594 5.76296C12.6514 5.85296 13.4944 6.16496 13.8904 6.40496C14.9734 7.05895 15.4444 7.91996 15.9214 10.134C16.0624 10.782 16.2454 11.514 16.3294 11.766C16.4644 12.165 16.9804 13.098 17.3974 13.704C17.6974 14.142 17.4994 14.349 16.8334 14.289C15.8164 14.199 14.4394 13.254 13.5514 12.039ZM31.1584 23.7C25.8064 21.561 23.9224 19.701 23.9224 16.566C23.9224 16.104 23.9374 15.726 23.9584 15.726C23.9764 15.726 24.1834 15.876 24.4174 16.065C25.5034 16.929 26.7184 17.298 30.0844 17.787C32.0644 18.075 33.1744 18.306 34.2034 18.645C37.4734 19.722 39.4924 21.906 39.9754 24.885C40.1134 25.749 40.0354 27.369 39.8044 28.224C39.6244 28.899 39.0784 30.114 38.9344 30.162C38.8924 30.177 38.8534 30.024 38.8444 29.814C38.7904 28.698 38.2204 27.609 37.2664 26.793C36.1804 25.866 34.7224 25.125 31.1584 23.7ZM27.4024 24.591C27.3395 24.211 27.2534 23.8353 27.1444 23.466L27.0064 23.061L27.2614 23.346C27.6124 23.736 27.8914 24.237 28.1254 24.906C28.3054 25.416 28.3234 25.566 28.3234 26.394C28.3234 27.207 28.2994 27.378 28.1314 27.834C27.9009 28.5102 27.5145 29.1227 27.0034 29.622C26.0254 30.612 24.7684 31.158 22.9534 31.386C22.6384 31.425 21.7204 31.491 20.9134 31.533C18.8764 31.638 17.5354 31.857 16.3324 32.277C16.2233 32.3249 16.1064 32.3523 15.9874 32.358C15.9394 32.31 16.7614 31.824 17.4364 31.5C18.3904 31.041 19.3414 30.792 21.4714 30.441C22.5214 30.267 23.6104 30.054 23.8864 29.97C26.4904 29.178 27.8314 27.129 27.4024 24.591Z" fill="white"/>
<path d="M29.856 28.923C29.145 27.405 28.98 25.938 29.37 24.57C29.412 24.42 29.478 24.303 29.52 24.303C29.559 24.303 29.73 24.393 29.892 24.504C30.222 24.723 30.876 25.092 32.628 26.04C34.812 27.225 36.06 28.14 36.906 29.19C37.647 30.105 38.106 31.152 38.328 32.424C38.454 33.144 38.379 34.884 38.193 35.61C37.605 37.902 36.243 39.702 34.293 40.752C34.008 40.905 33.753 41.031 33.723 41.031C33.696 41.031 33.801 40.77 33.954 40.449C34.611 39.087 34.686 37.764 34.191 36.291C33.885 35.388 33.267 34.287 32.019 32.424C30.567 30.264 30.213 29.685 29.856 28.923ZM9.75 37.122C11.739 35.454 14.208 34.272 16.461 33.906C17.6214 33.7572 18.7986 33.8028 19.944 34.041C21.384 34.407 22.674 35.229 23.343 36.204C23.997 37.161 24.279 37.992 24.573 39.846C24.687 40.575 24.813 41.31 24.849 41.475C25.068 42.435 25.497 43.203 26.025 43.587C26.865 44.199 28.317 44.238 29.742 43.686C29.89 43.6178 30.0463 43.5693 30.207 43.542C30.258 43.593 29.541 44.07 29.037 44.322C28.439 44.64 27.7702 44.801 27.093 44.79C25.788 44.79 24.705 44.13 23.799 42.786C23.4667 42.2169 23.1702 41.6278 22.911 41.022C21.957 38.859 21.486 38.202 20.379 37.479C19.413 36.849 18.168 36.738 17.232 37.194C16.002 37.794 15.66 39.354 16.542 40.344C16.954 40.7694 17.4931 41.0494 18.078 41.142C18.3103 41.1738 18.5468 41.1553 18.7713 41.0877C18.9959 41.0201 19.2032 40.905 19.3794 40.7503C19.5555 40.5955 19.6963 40.4046 19.7922 40.1906C19.888 39.9766 19.9367 39.7445 19.935 39.51C19.935 38.859 19.683 38.49 19.05 38.202C18.183 37.815 17.256 38.268 17.259 39.075C17.259 39.42 17.412 39.636 17.76 39.795C17.982 39.894 17.988 39.9 17.805 39.864C17.013 39.699 16.827 38.748 17.463 38.118C18.231 37.362 19.815 37.695 20.358 38.73C20.586 39.165 20.613 40.029 20.415 40.551C19.965 41.721 18.669 42.336 17.349 42C16.449 41.772 16.086 41.526 15.003 40.419C13.122 38.493 12.393 38.118 9.681 37.698L9.159 37.617L9.75 37.122Z" fill="white"/>
<path fill-rule="evenodd" clip-rule="evenodd" d="M0.924395 2.652C7.2064 10.23 11.5354 13.356 12.0154 14.016C12.4114 14.562 12.2614 15.054 11.5834 15.438C11.1012 15.6802 10.5764 15.826 10.0384 15.867C9.5974 15.867 9.4444 15.699 9.4444 15.699C9.1894 15.459 9.0454 15.501 7.7344 13.188C6.6198 11.4533 5.49176 9.72723 4.3504 8.01C4.2544 7.92 4.25739 7.92 7.5514 13.779C8.0824 15 7.6564 15.447 7.6564 15.621C7.6564 15.975 7.55739 16.161 7.1194 16.65C6.38739 17.46 6.0604 18.372 5.8234 20.259C5.5594 22.374 4.8154 23.868 2.7514 26.427C1.5454 27.924 1.3474 28.197 1.0414 28.803C0.657395 29.562 0.552395 29.988 0.510395 30.945C0.465395 31.962 0.552395 32.616 0.864395 33.585C1.1344 34.437 1.4224 34.995 2.1514 36.117C2.7814 37.086 3.1414 37.806 3.1414 38.088C3.1414 38.31 3.1834 38.31 4.1614 38.091C6.4894 37.569 8.3824 36.651 9.4474 35.52C10.1074 34.821 10.2604 34.437 10.2664 33.48C10.2694 32.856 10.2484 32.724 10.0774 32.364C9.8014 31.779 9.2974 31.29 8.1874 30.534C6.7294 29.544 6.1054 28.749 5.9374 27.654C5.7934 26.754 5.9584 26.121 6.7624 24.444C7.5964 22.704 7.8034 21.963 7.9444 20.214C8.0344 19.083 8.1574 18.636 8.4844 18.276C8.8264 17.904 9.1324 17.778 9.9784 17.664C11.3554 17.475 12.2284 17.124 12.9484 16.464C13.237 16.2258 13.4698 15.9272 13.6305 15.5892C13.7912 15.2513 13.8758 14.8822 13.8784 14.508L13.9084 13.878L13.5574 13.476C12.2944 12.012 0.0783951 1.5 0.000395073 1.5C-0.0146049 1.5 0.399395 2.019 0.924395 2.652ZM3.8524 32.097C3.99003 31.8539 4.03095 31.5679 3.967 31.296C3.90306 31.0241 3.73894 30.7863 3.5074 30.63C3.0574 30.33 2.3524 30.474 2.3524 30.861C2.3524 30.981 2.4184 31.068 2.5684 31.143C2.8204 31.272 2.8384 31.416 2.6404 31.713C2.4394 32.01 2.4574 32.271 2.6854 32.451C3.0544 32.736 3.5764 32.58 3.8524 32.097ZM14.7754 17.997C14.1304 18.192 13.5034 18.873 13.3054 19.587C13.1884 20.022 13.2574 20.787 13.4344 21.021C13.7224 21.402 13.9984 21.501 14.7514 21.498C16.2214 21.489 17.4994 20.862 17.6494 20.076C17.7694 19.434 17.2084 18.546 16.4344 18.153C15.9086 17.9395 15.3317 17.8853 14.7754 17.997ZM16.4974 19.332C16.7224 19.011 16.6234 18.666 16.2364 18.432C15.5044 17.985 14.3914 18.354 14.3914 19.044C14.3914 19.389 14.9704 19.764 15.5014 19.764C15.8554 19.764 16.3414 19.554 16.4974 19.332Z" fill="white"/>
</svg>
