<svg width="55" height="55" viewBox="0 0 55 55" fill="none" xmlns="http://www.w3.org/2000/svg">
<g clip-path="url(#clip0_918_1721)">
<path d="M27.28 54.5C42.2426 54.5 54.28 42.4626 54.28 27.5C54.28 12.5374 42.2426 0.5 27.28 0.5C12.3174 0.5 0.280029 12.5374 0.280029 27.5C0.280029 42.4626 12.3174 54.5 27.28 54.5Z" fill="#484855"/>
<path d="M34.705 31.7749C34.705 27.8374 32.3425 26.4874 27.6175 25.925C24.2425 25.4749 23.5675 24.575 23.5675 22.9999C23.5675 21.4247 24.6926 20.4124 26.9425 20.4124C28.9675 20.4124 30.0926 21.0874 30.655 22.7749C30.7676 23.1124 31.1051 23.3374 31.4426 23.3374H33.2424C33.6925 23.3374 34.03 22.9999 34.03 22.55V22.4374C33.5799 19.9624 31.5549 18.0499 28.9675 17.825V15.125C28.9675 14.6749 28.63 14.3374 28.0676 14.2249H26.3801C25.93 14.2249 25.5925 14.5624 25.4799 15.125V17.7124C22.1049 18.1625 19.9676 20.4124 19.9676 23.225C19.9676 26.9375 22.2175 28.3999 26.9425 28.9625C30.0926 29.5249 31.1051 30.1999 31.1051 32C31.1051 33.8001 29.5299 35.0375 27.3926 35.0375C24.4674 35.0375 23.4549 33.7999 23.1174 32.1124C23.0051 31.6625 22.6676 31.4374 22.3301 31.4374H20.4174C19.9676 31.4374 19.6301 31.7749 19.6301 32.2249V32.3375C20.0799 35.1499 21.88 37.1749 25.5925 37.7375V40.4375C25.5925 40.8874 25.93 41.2249 26.4924 41.3374H28.1799C28.63 41.3374 28.9675 40.9999 29.0801 40.4375V37.7375C32.4551 37.1749 34.705 34.8124 34.705 31.7749Z" fill="#939399"/>
<path d="M21.5425 43.5873C12.7675 40.4375 8.26744 30.65 11.5301 21.9873C13.2176 17.2623 16.9301 13.6624 21.5425 11.9749C21.9926 11.75 22.2175 11.4125 22.2175 10.8498V9.27491C22.2175 8.82482 21.9926 8.48732 21.5425 8.375C21.4299 8.375 21.205 8.375 21.0924 8.48732C10.405 11.8623 4.55494 23.225 7.92994 33.9124C9.95494 40.2123 14.7925 45.0499 21.0924 47.0749C21.5425 47.2998 21.9926 47.0749 22.1049 46.6248C22.2175 46.5125 22.2175 46.3999 22.2175 46.175V44.5998C22.2175 44.2623 21.88 43.8125 21.5425 43.5873ZM33.4676 8.48732C33.0175 8.26241 32.5674 8.48732 32.4551 8.93741C32.3425 9.05 32.3425 9.16232 32.3425 9.3875V10.9624C32.3425 11.4125 32.68 11.8623 33.0175 12.0875C41.7925 15.2373 46.2926 25.0248 43.0299 33.6875C41.3424 38.4125 37.6299 42.0124 33.0175 43.6999C32.5674 43.9248 32.3425 44.2623 32.3425 44.825V46.3999C32.3425 46.85 32.5674 47.1875 33.0175 47.2998C33.1301 47.2998 33.355 47.2998 33.4676 47.1875C44.155 43.8125 50.0051 32.4498 46.6301 21.7624C44.6051 15.3499 39.6549 10.5123 33.4676 8.48732Z" fill="#939399"/>
</g>
<defs>
<clipPath id="clip0_918_1721">
<rect width="54" height="54" fill="white" transform="translate(0.280029 0.5)"/>
</clipPath>
</defs>
</svg>
