<svg width="55" height="55" viewBox="0 0 55 55" fill="none" xmlns="http://www.w3.org/2000/svg">
<g clip-path="url(#clip0_901_1672)">
<path d="M27.5 54.5C42.4626 54.5 54.5 42.4626 54.5 27.5C54.5 12.5374 42.4626 0.5 27.5 0.5C12.5374 0.5 0.5 12.5374 0.5 27.5C0.5 42.4626 12.5374 54.5 27.5 54.5Z" fill="#2775CA"/>
<path d="M34.925 31.7749C34.925 27.8374 32.5625 26.4874 27.8375 25.925C24.4625 25.4749 23.7875 24.575 23.7875 22.9999C23.7875 21.4247 24.9126 20.4124 27.1625 20.4124C29.1875 20.4124 30.3126 21.0874 30.875 22.7749C30.9876 23.1124 31.3251 23.3374 31.6626 23.3374H33.4624C33.9125 23.3374 34.25 22.9999 34.25 22.55V22.4374C33.7999 19.9624 31.7749 18.0499 29.1875 17.825V15.125C29.1875 14.6749 28.85 14.3374 28.2876 14.2249H26.6001C26.15 14.2249 25.8125 14.5624 25.6999 15.125V17.7124C22.3249 18.1625 20.1876 20.4124 20.1876 23.225C20.1876 26.9375 22.4375 28.3999 27.1625 28.9625C30.3126 29.5249 31.3251 30.1999 31.3251 32C31.3251 33.8001 29.7499 35.0375 27.6126 35.0375C24.6874 35.0375 23.6749 33.7999 23.3374 32.1124C23.2251 31.6625 22.8876 31.4374 22.5501 31.4374H20.6374C20.1876 31.4374 19.8501 31.7749 19.8501 32.2249V32.3375C20.2999 35.1499 22.1 37.1749 25.8125 37.7375V40.4375C25.8125 40.8874 26.15 41.2249 26.7124 41.3374H28.3999C28.85 41.3374 29.1875 40.9999 29.3001 40.4375V37.7375C32.6751 37.1749 34.925 34.8124 34.925 31.7749Z" fill="white"/>
<path d="M21.7625 43.5873C12.9875 40.4375 8.48741 30.65 11.7501 21.9873C13.4376 17.2623 17.1501 13.6624 21.7625 11.9749C22.2126 11.75 22.4375 11.4125 22.4375 10.8498V9.27491C22.4375 8.82482 22.2126 8.48732 21.7625 8.375C21.6499 8.375 21.425 8.375 21.3124 8.48732C10.625 11.8623 4.77491 23.225 8.14991 33.9124C10.1749 40.2123 15.0125 45.0499 21.3124 47.0749C21.7625 47.2998 22.2126 47.0749 22.3249 46.6248C22.4375 46.5125 22.4375 46.3999 22.4375 46.175V44.5998C22.4375 44.2623 22.1 43.8125 21.7625 43.5873ZM33.6876 8.48732C33.2375 8.26241 32.7874 8.48732 32.6751 8.93741C32.5625 9.05 32.5625 9.16232 32.5625 9.3875V10.9624C32.5625 11.4125 32.9 11.8623 33.2375 12.0875C42.0125 15.2373 46.5126 25.0248 43.2499 33.6875C41.5624 38.4125 37.8499 42.0124 33.2375 43.6999C32.7874 43.9248 32.5625 44.2623 32.5625 44.825V46.3999C32.5625 46.85 32.7874 47.1875 33.2375 47.2998C33.3501 47.2998 33.575 47.2998 33.6876 47.1875C44.375 43.8125 50.2251 32.4498 46.8501 21.7624C44.8251 15.3499 39.8749 10.5123 33.6876 8.48732Z" fill="white"/>
</g>
<defs>
<clipPath id="clip0_901_1672">
<rect width="54" height="54" fill="white" transform="translate(0.5 0.5)"/>
</clipPath>
</defs>
</svg>
