<svg width="55" height="45" viewBox="0 0 55 45" fill="none" xmlns="http://www.w3.org/2000/svg">
<path d="M5.5 20L27.5 42L45 24.5L48.5 16.5L41.5 4L13.5 1.5L5.5 20Z" fill="white"/>
<path fill-rule="evenodd" clip-rule="evenodd" d="M11.9805 0H43.084C43.8262 0 44.5118 0.397019 44.8819 1.04112L53.9436 16.8106C54.4135 17.6284 54.2739 18.6606 53.6036 19.3238L28.661 44.0012C27.853 44.8006 26.5533 44.8006 25.7453 44.0012L0.836356 19.3571C0.150488 18.6786 0.0220552 17.6163 0.52641 16.7934L10.2127 0.990523C10.5899 0.375077 11.2593 0 11.9805 0ZM39.068 7.04055V11.4653H30.2078V14.533C36.4306 14.8609 41.0993 16.2073 41.134 17.8212L41.1338 21.1857C41.0991 22.7996 36.4306 24.146 30.2078 24.4738V32.0025H24.3246V24.4738C18.1018 24.146 13.4331 22.7996 13.3985 21.1857L13.3987 17.8212C13.4333 16.2073 18.1018 14.8609 24.3246 14.533V11.4653H15.4645V7.04055H39.068ZM27.2663 22.1625C33.907 22.1625 39.4576 21.0239 40.816 19.5035C39.6641 18.2141 35.4975 17.1994 30.2078 16.9207V20.1327C29.2598 20.1826 28.2756 20.2089 27.2663 20.2089C26.2568 20.2089 25.2727 20.1826 24.3246 20.1327V16.9207C19.035 17.1994 14.8684 18.2141 13.7165 19.5035C15.0748 21.0239 20.6254 22.1625 27.2663 22.1625Z" fill="#009393"/>
</svg>
