<svg width="54" height="45" viewBox="0 0 54 45" fill="none" xmlns="http://www.w3.org/2000/svg">
<path d="M5.28003 20L27.28 42L44.78 24.5L48.28 16.5L41.28 4L13.28 1.5L5.28003 20Z" fill="#93939A"/>
<path fill-rule="evenodd" clip-rule="evenodd" d="M11.7606 0H42.864C43.6062 0 44.2918 0.397019 44.6619 1.04112L53.7236 16.8106C54.1935 17.6284 54.0539 18.6606 53.3836 19.3238L28.441 44.0012C27.633 44.8006 26.3333 44.8006 25.5253 44.0012L0.616385 19.3571C-0.0694825 18.6786 -0.197915 17.6163 0.306439 16.7934L9.99269 0.990523C10.3699 0.375077 11.0393 0 11.7606 0ZM38.848 7.04055V11.4653H29.9879V14.533C36.2107 14.8609 40.8794 16.2073 40.914 17.8212L40.9138 21.1857C40.8791 22.7996 36.2107 24.146 29.9879 24.4738V32.0025H24.1046V24.4738C17.8818 24.146 13.2131 22.7996 13.1786 21.1857L13.1787 17.8212C13.2134 16.2073 17.8818 14.8609 24.1046 14.533V11.4653H15.2445V7.04055H38.848ZM27.0463 22.1625C33.687 22.1625 39.2376 21.0239 40.596 19.5035C39.4441 18.2141 35.2775 17.1994 29.9879 16.9207V20.1327C29.0399 20.1826 28.0556 20.2089 27.0463 20.2089C26.0369 20.2089 25.0527 20.1826 24.1046 20.1327V16.9207C18.815 17.1994 14.6484 18.2141 13.4965 19.5035C14.8549 21.0239 20.4055 22.1625 27.0463 22.1625Z" fill="#464653"/>
</svg>
