<svg width="24" height="24" viewBox="0 0 24 24" fill="none" xmlns="http://www.w3.org/2000/svg">
<path d="M23.9931 15.6592H22.3325L21.4297 0.5H17.6813V2.71191C17.6813 4.74301 16.5979 6.61955 14.8391 7.63505C13.0802 8.65056 10.9131 8.6506 9.15401 7.63505C7.39494 6.61951 6.31176 4.74296 6.31176 2.71191V0.5H2.56314L1.6606 15.6592H0V16.9271L1.59158 16.9272L1.29535 21.9779L2.19672e-05 21.9778V23.2388H7.57964V21.9778H6.31182V16.9271H17.6815V21.9778L16.4204 21.9776V23.2387H24V21.9776H22.6978L22.4015 16.9269H23.9933L23.9931 15.6592ZM8.20659 15.6592H6.31189V6.70154C6.82077 7.42779 7.46396 8.04998 8.20677 8.5345L8.20659 15.6592ZM11.3693 15.6592H9.46763V9.17508C10.0767 9.41628 10.7171 9.56942 11.3695 9.62983L11.3693 15.6592ZM14.5253 15.6592H12.6236V9.63C13.276 9.56961 13.9164 9.41648 14.5254 9.17525L14.5253 15.6592ZM17.6812 15.6592H15.7863V8.52746C16.5292 8.04294 17.1723 7.42092 17.6812 6.69468V15.6592Z" fill="#D4C4ED"/>
</svg>
